solid CATIA STL
  facet normal -7.071068e-001  7.071067e-001  0.000000e+000
    outer loop
      vertex  1.421085e-014  6.717515e+001  2.500000e+001
      vertex  1.421085e-014  6.717515e+001  0.000000e+000
      vertex -1.944544e+001  4.772971e+001  2.500000e+001
    endloop
  endfacet
  facet normal -7.071068e-001  7.071067e-001  0.000000e+000
    outer loop
      vertex -1.944544e+001  4.772971e+001  2.500000e+001
      vertex  1.421085e-014  6.717515e+001  0.000000e+000
      vertex -1.944544e+001  4.772971e+001  0.000000e+000
    endloop
  endfacet
  facet normal  0.000000e+000  0.000000e+000  1.000000e+000
    outer loop
      vertex -1.767767e+001 -4.242641e+001  2.500000e+001
      vertex -6.187184e+000 -2.209709e+001  2.500000e+001
      vertex -9.092674e+000  9.092674e+000  2.500000e+001
    endloop
  endfacet
  facet normal  0.000000e+000  0.000000e+000  9.999999e-001
    outer loop
      vertex -1.767767e+001 -4.242641e+001  2.500000e+001
      vertex -1.767767e+000 -2.651650e+001  2.500000e+001
      vertex -6.187184e+000 -2.209709e+001  2.500000e+001
    endloop
  endfacet
  facet normal  0.000000e+000  0.000000e+000  1.000000e+000
    outer loop
      vertex -2.651650e+000 -1.856155e+001  2.500000e+001
      vertex  2.632612e+001 -2.632612e+001  2.500000e+001
      vertex  1.856155e+001  2.651650e+000  2.500000e+001
    endloop
  endfacet
  facet normal  0.000000e+000  0.000000e+000  1.000000e+000
    outer loop
      vertex -2.651650e+000 -1.856155e+001  2.500000e+001
      vertex  1.856155e+001  2.651650e+000  2.500000e+001
      vertex -9.092674e+000  9.092674e+000  2.500000e+001
    endloop
  endfacet
  facet normal  0.000000e+000  0.000000e+000  9.999999e-001
    outer loop
      vertex -2.651650e+000 -1.856155e+001  2.500000e+001
      vertex -9.092674e+000  9.092674e+000  2.500000e+001
      vertex -6.187184e+000 -2.209709e+001  2.500000e+001
    endloop
  endfacet
  facet normal  0.000000e+000  -0.000000e+000  1.000000e+000
    outer loop
      vertex -4.242641e+001 -1.767767e+001  2.500000e+001
      vertex -1.767767e+001 -4.242641e+001  2.500000e+001
      vertex -9.092674e+000  9.092674e+000  2.500000e+001
    endloop
  endfacet
  facet normal  0.000000e+000  0.000000e+000  1.000000e+000
    outer loop
      vertex -4.242641e+001 -1.767767e+001  2.500000e+001
      vertex -9.092674e+000  9.092674e+000  2.500000e+001
      vertex -4.772971e+001  1.944544e+001  2.500000e+001
    endloop
  endfacet
  facet normal  0.000000e+000  0.000000e+000  1.000000e+000
    outer loop
      vertex -4.242641e+001 -1.767767e+001  2.500000e+001
      vertex -4.772971e+001  1.944544e+001  2.500000e+001
      vertex -6.717515e+001  7.105427e-015  2.500000e+001
    endloop
  endfacet
  facet normal  0.000000e+000  0.000000e+000  1.000000e+000
    outer loop
      vertex -4.242641e+001 -1.767767e+001  2.500000e+001
      vertex -6.717515e+001  7.105427e-015  2.500000e+001
      vertex -4.596194e+001 -2.121320e+001  2.500000e+001
    endloop
  endfacet
  facet normal  0.000000e+000  0.000000e+000  1.000000e+000
    outer loop
      vertex -1.421085e-014 -6.717515e+001  2.500000e+001
      vertex  2.298097e+001 -4.419418e+001  2.500000e+001
      vertex  1.767767e+000 -2.298097e+001  2.500000e+001
    endloop
  endfacet
  facet normal  0.000000e+000  0.000000e+000  1.000000e+000
    outer loop
      vertex -1.421085e-014 -6.717515e+001  2.500000e+001
      vertex  1.767767e+000 -2.298097e+001  2.500000e+001
      vertex -1.767767e+000 -2.651650e+001  2.500000e+001
    endloop
  endfacet
  facet normal  0.000000e+000  0.000000e+000  1.000000e+000
    outer loop
      vertex -1.421085e-014 -6.717515e+001  2.500000e+001
      vertex -1.767767e+000 -2.651650e+001  2.500000e+001
      vertex -1.767767e+001 -4.242641e+001  2.500000e+001
    endloop
  endfacet
  facet normal  0.000000e+000  0.000000e+000  1.000000e+000
    outer loop
      vertex -1.421085e-014 -6.717515e+001  2.500000e+001
      vertex -1.767767e+001 -4.242641e+001  2.500000e+001
      vertex -2.121320e+001 -4.596194e+001  2.500000e+001
    endloop
  endfacet
  facet normal  0.000000e+000  0.000000e+000  1.000000e+000
    outer loop
      vertex  4.419418e+001 -2.298097e+001  2.500000e+001
      vertex  6.717515e+001 -7.105427e-015  2.500000e+001
      vertex  4.596194e+001  2.121320e+001  2.500000e+001
    endloop
  endfacet
  facet normal  0.000000e+000  0.000000e+000  1.000000e+000
    outer loop
      vertex  4.419418e+001 -2.298097e+001  2.500000e+001
      vertex  4.596194e+001  2.121320e+001  2.500000e+001
      vertex  4.242641e+001  1.767767e+001  2.500000e+001
    endloop
  endfacet
  facet normal  0.000000e+000  0.000000e+000  1.000000e+000
    outer loop
      vertex  4.419418e+001 -2.298097e+001  2.500000e+001
      vertex  4.242641e+001  1.767767e+001  2.500000e+001
      vertex  2.651650e+001  1.767767e+000  2.500000e+001
    endloop
  endfacet
  facet normal  0.000000e+000  0.000000e+000  1.000000e+000
    outer loop
      vertex  4.419418e+001 -2.298097e+001  2.500000e+001
      vertex  2.651650e+001  1.767767e+000  2.500000e+001
      vertex  2.298097e+001 -1.767767e+000  2.500000e+001
    endloop
  endfacet
  facet normal  0.000000e+000  0.000000e+000  1.000000e+000
    outer loop
      vertex  2.651650e+001  1.767767e+000  2.500000e+001
      vertex  4.242641e+001  1.767767e+001  2.500000e+001
      vertex  2.209709e+001  6.187184e+000  2.500000e+001
    endloop
  endfacet
  facet normal  0.000000e+000  -0.000000e+000  9.999999e-001
    outer loop
      vertex  2.209709e+001  6.187184e+000  2.500000e+001
      vertex  4.242641e+001  1.767767e+001  2.500000e+001
      vertex  1.767767e+001  4.242641e+001  2.500000e+001
    endloop
  endfacet
  facet normal  0.000000e+000  0.000000e+000  1.000000e+000
    outer loop
      vertex  2.209709e+001  6.187184e+000  2.500000e+001
      vertex  1.767767e+001  4.242641e+001  2.500000e+001
      vertex  1.856155e+001  2.651650e+000  2.500000e+001
    endloop
  endfacet
  facet normal  0.000000e+000  0.000000e+000  1.000000e+000
    outer loop
      vertex  1.856155e+001  2.651650e+000  2.500000e+001
      vertex  1.767767e+001  4.242641e+001  2.500000e+001
      vertex -9.092674e+000  9.092674e+000  2.500000e+001
    endloop
  endfacet
  facet normal  0.000000e+000  0.000000e+000  1.000000e+000
    outer loop
      vertex  2.121320e+001  4.596194e+001  2.500000e+001
      vertex  1.421085e-014  6.717515e+001  2.500000e+001
      vertex  1.767767e+001  4.242641e+001  2.500000e+001
    endloop
  endfacet
  facet normal  0.000000e+000  0.000000e+000  9.999999e-001
    outer loop
      vertex  1.767767e+001  4.242641e+001  2.500000e+001
      vertex  1.421085e-014  6.717515e+001  2.500000e+001
      vertex -1.944544e+001  4.772971e+001  2.500000e+001
    endloop
  endfacet
  facet normal  0.000000e+000  0.000000e+000  1.000000e+000
    outer loop
      vertex  1.767767e+001  4.242641e+001  2.500000e+001
      vertex -1.944544e+001  4.772971e+001  2.500000e+001
      vertex -9.092674e+000  9.092674e+000  2.500000e+001
    endloop
  endfacet
  facet normal -7.071068e-001  7.071068e-001  0.000000e+000
    outer loop
      vertex -2.121320e+001 -4.596194e+001  2.500000e+001
      vertex -1.767767e+001 -4.242641e+001  2.500000e+001
      vertex -2.121320e+001 -4.596194e+001  0.000000e+000
    endloop
  endfacet
  facet normal -7.071068e-001  7.071068e-001  0.000000e+000
    outer loop
      vertex -2.121320e+001 -4.596194e+001  0.000000e+000
      vertex -1.767767e+001 -4.242641e+001  2.500000e+001
      vertex -1.767767e+001 -4.242641e+001  0.000000e+000
    endloop
  endfacet
  facet normal -7.071069e-001 -7.071067e-001  0.000000e+000
    outer loop
      vertex -1.421085e-014 -6.717515e+001  2.500000e+001
      vertex -2.121320e+001 -4.596194e+001  2.500000e+001
      vertex -1.421085e-014 -6.717515e+001  0.000000e+000
    endloop
  endfacet
  facet normal -7.071069e-001 -7.071067e-001  0.000000e+000
    outer loop
      vertex -1.421085e-014 -6.717515e+001  0.000000e+000
      vertex -2.121320e+001 -4.596194e+001  2.500000e+001
      vertex -2.121320e+001 -4.596194e+001  0.000000e+000
    endloop
  endfacet
  facet normal  7.071068e-001  7.071067e-001  0.000000e+000
    outer loop
      vertex  1.767767e+000 -2.298097e+001  2.500000e+001
      vertex  2.298097e+001 -4.419418e+001  2.500000e+001
      vertex  1.767767e+000 -2.298097e+001  0.000000e+000
    endloop
  endfacet
  facet normal  7.071068e-001  7.071067e-001  0.000000e+000
    outer loop
      vertex  1.767767e+000 -2.298097e+001  0.000000e+000
      vertex  2.298097e+001 -4.419418e+001  2.500000e+001
      vertex  2.298097e+001 -4.419418e+001  0.000000e+000
    endloop
  endfacet
  facet normal -7.071068e-001  7.071068e-001  0.000000e+000
    outer loop
      vertex -1.767767e+000 -2.651650e+001  2.500000e+001
      vertex  1.767767e+000 -2.298097e+001  2.500000e+001
      vertex -1.767767e+000 -2.651650e+001  0.000000e+000
    endloop
  endfacet
  facet normal -7.071068e-001  7.071068e-001  0.000000e+000
    outer loop
      vertex -1.767767e+000 -2.651650e+001  0.000000e+000
      vertex  1.767767e+000 -2.298097e+001  2.500000e+001
      vertex  1.767767e+000 -2.298097e+001  0.000000e+000
    endloop
  endfacet
  facet normal  7.071067e-001  7.071069e-001  0.000000e+000
    outer loop
      vertex -1.767767e+000 -2.651650e+001  0.000000e+000
      vertex -6.187184e+000 -2.209709e+001  0.000000e+000
      vertex -1.767767e+000 -2.651650e+001  2.500000e+001
    endloop
  endfacet
  facet normal  7.071067e-001  7.071069e-001  0.000000e+000
    outer loop
      vertex -1.767767e+000 -2.651650e+001  2.500000e+001
      vertex -6.187184e+000 -2.209709e+001  0.000000e+000
      vertex -6.187184e+000 -2.209709e+001  2.500000e+001
    endloop
  endfacet
  facet normal  7.071068e-001 -7.071068e-001  0.000000e+000
    outer loop
      vertex -6.187184e+000 -2.209709e+001  2.500000e+001
      vertex -6.187184e+000 -2.209709e+001  0.000000e+000
      vertex -2.651650e+000 -1.856155e+001  2.500000e+001
    endloop
  endfacet
  facet normal  7.071068e-001 -7.071068e-001  0.000000e+000
    outer loop
      vertex -2.651650e+000 -1.856155e+001  2.500000e+001
      vertex -6.187184e+000 -2.209709e+001  0.000000e+000
      vertex -2.651650e+000 -1.856155e+001  0.000000e+000
    endloop
  endfacet
  facet normal -2.588190e-001 -9.659259e-001  0.000000e+000
    outer loop
      vertex -2.651650e+000 -1.856155e+001  2.500000e+001
      vertex -2.651650e+000 -1.856155e+001  0.000000e+000
      vertex  2.632612e+001 -2.632612e+001  2.500000e+001
    endloop
  endfacet
  facet normal -2.588190e-001 -9.659259e-001  -0.000000e+000
    outer loop
      vertex  2.632612e+001 -2.632612e+001  2.500000e+001
      vertex -2.651650e+000 -1.856155e+001  0.000000e+000
      vertex  2.632612e+001 -2.632612e+001  0.000000e+000
    endloop
  endfacet
  facet normal  7.071068e-001  7.071068e-001  0.000000e+000
    outer loop
      vertex  4.242641e+001  1.767767e+001  0.000000e+000
      vertex  1.767767e+001  4.242641e+001  0.000000e+000
      vertex  4.242641e+001  1.767767e+001  2.500000e+001
    endloop
  endfacet
  facet normal  7.071068e-001  7.071068e-001  0.000000e+000
    outer loop
      vertex  4.242641e+001  1.767767e+001  2.500000e+001
      vertex  1.767767e+001  4.242641e+001  0.000000e+000
      vertex  1.767767e+001  4.242641e+001  2.500000e+001
    endloop
  endfacet
  facet normal  7.071068e-001 -7.071068e-001  0.000000e+000
    outer loop
      vertex  1.767767e+001  4.242641e+001  0.000000e+000
      vertex  2.121320e+001  4.596194e+001  0.000000e+000
      vertex  1.767767e+001  4.242641e+001  2.500000e+001
    endloop
  endfacet
  facet normal  7.071068e-001 -7.071068e-001  0.000000e+000
    outer loop
      vertex  1.767767e+001  4.242641e+001  2.500000e+001
      vertex  2.121320e+001  4.596194e+001  0.000000e+000
      vertex  2.121320e+001  4.596194e+001  2.500000e+001
    endloop
  endfacet
  facet normal  7.071069e-001  7.071067e-001  -0.000000e+000
    outer loop
      vertex  2.121320e+001  4.596194e+001  2.500000e+001
      vertex  2.121320e+001  4.596194e+001  0.000000e+000
      vertex  1.421085e-014  6.717515e+001  2.500000e+001
    endloop
  endfacet
  facet normal  7.071069e-001  7.071067e-001  0.000000e+000
    outer loop
      vertex  1.421085e-014  6.717515e+001  2.500000e+001
      vertex  2.121320e+001  4.596194e+001  0.000000e+000
      vertex  1.421085e-014  6.717515e+001  0.000000e+000
    endloop
  endfacet
  facet normal -7.071068e-001  7.071068e-001  0.000000e+000
    outer loop
      vertex  4.242641e+001  1.767767e+001  2.500000e+001
      vertex  4.596194e+001  2.121320e+001  2.500000e+001
      vertex  4.242641e+001  1.767767e+001  0.000000e+000
    endloop
  endfacet
  facet normal -7.071068e-001  7.071068e-001  0.000000e+000
    outer loop
      vertex  4.242641e+001  1.767767e+001  0.000000e+000
      vertex  4.596194e+001  2.121320e+001  2.500000e+001
      vertex  4.596194e+001  2.121320e+001  0.000000e+000
    endloop
  endfacet
  facet normal  7.071067e-001  7.071069e-001  -0.000000e+000
    outer loop
      vertex  6.717515e+001 -7.105427e-015  2.500000e+001
      vertex  6.717515e+001 -7.105427e-015  0.000000e+000
      vertex  4.596194e+001  2.121320e+001  2.500000e+001
    endloop
  endfacet
  facet normal  7.071067e-001  7.071069e-001  0.000000e+000
    outer loop
      vertex  4.596194e+001  2.121320e+001  2.500000e+001
      vertex  6.717515e+001 -7.105427e-015  0.000000e+000
      vertex  4.596194e+001  2.121320e+001  0.000000e+000
    endloop
  endfacet
  facet normal  7.071067e-001 -7.071068e-001  0.000000e+000
    outer loop
      vertex  6.717515e+001 -7.105427e-015  2.500000e+001
      vertex  4.419418e+001 -2.298097e+001  2.500000e+001
      vertex  6.717515e+001 -7.105427e-015  0.000000e+000
    endloop
  endfacet
  facet normal  7.071067e-001 -7.071068e-001  0.000000e+000
    outer loop
      vertex  6.717515e+001 -7.105427e-015  0.000000e+000
      vertex  4.419418e+001 -2.298097e+001  2.500000e+001
      vertex  4.419418e+001 -2.298097e+001  0.000000e+000
    endloop
  endfacet
  facet normal -7.071067e-001 -7.071068e-001  0.000000e+000
    outer loop
      vertex  2.298097e+001 -1.767767e+000  2.500000e+001
      vertex  2.298097e+001 -1.767767e+000  0.000000e+000
      vertex  4.419418e+001 -2.298097e+001  2.500000e+001
    endloop
  endfacet
  facet normal -7.071067e-001 -7.071068e-001  -0.000000e+000
    outer loop
      vertex  4.419418e+001 -2.298097e+001  2.500000e+001
      vertex  2.298097e+001 -1.767767e+000  0.000000e+000
      vertex  4.419418e+001 -2.298097e+001  0.000000e+000
    endloop
  endfacet
  facet normal -7.071068e-001  7.071068e-001  0.000000e+000
    outer loop
      vertex  2.298097e+001 -1.767767e+000  2.500000e+001
      vertex  2.651650e+001  1.767767e+000  2.500000e+001
      vertex  2.298097e+001 -1.767767e+000  0.000000e+000
    endloop
  endfacet
  facet normal -7.071068e-001  7.071068e-001  0.000000e+000
    outer loop
      vertex  2.298097e+001 -1.767767e+000  0.000000e+000
      vertex  2.651650e+001  1.767767e+000  2.500000e+001
      vertex  2.651650e+001  1.767767e+000  0.000000e+000
    endloop
  endfacet
  facet normal -7.071069e-001 -7.071067e-001  -0.000000e+000
    outer loop
      vertex  2.651650e+001  1.767767e+000  0.000000e+000
      vertex  2.651650e+001  1.767767e+000  2.500000e+001
      vertex  2.209709e+001  6.187184e+000  0.000000e+000
    endloop
  endfacet
  facet normal -7.071069e-001 -7.071067e-001  0.000000e+000
    outer loop
      vertex  2.209709e+001  6.187184e+000  0.000000e+000
      vertex  2.651650e+001  1.767767e+000  2.500000e+001
      vertex  2.209709e+001  6.187184e+000  2.500000e+001
    endloop
  endfacet
  facet normal  7.071068e-001 -7.071068e-001  0.000000e+000
    outer loop
      vertex  1.856155e+001  2.651650e+000  2.500000e+001
      vertex  1.856155e+001  2.651650e+000  0.000000e+000
      vertex  2.209709e+001  6.187184e+000  2.500000e+001
    endloop
  endfacet
  facet normal  7.071068e-001 -7.071068e-001  0.000000e+000
    outer loop
      vertex  2.209709e+001  6.187184e+000  2.500000e+001
      vertex  1.856155e+001  2.651650e+000  0.000000e+000
      vertex  2.209709e+001  6.187184e+000  0.000000e+000
    endloop
  endfacet
  facet normal  9.659259e-001  2.588190e-001  0.000000e+000
    outer loop
      vertex  1.856155e+001  2.651650e+000  2.500000e+001
      vertex  2.632612e+001 -2.632612e+001  2.500000e+001
      vertex  1.856155e+001  2.651650e+000  0.000000e+000
    endloop
  endfacet
  facet normal  9.659259e-001  2.588190e-001  0.000000e+000
    outer loop
      vertex  1.856155e+001  2.651650e+000  0.000000e+000
      vertex  2.632612e+001 -2.632612e+001  2.500000e+001
      vertex  2.632612e+001 -2.632612e+001  0.000000e+000
    endloop
  endfacet
  facet normal  7.071068e-001 -7.071067e-001  0.000000e+000
    outer loop
      vertex  2.298097e+001 -4.419418e+001  2.500000e+001
      vertex -1.421085e-014 -6.717515e+001  2.500000e+001
      vertex  2.298097e+001 -4.419418e+001  0.000000e+000
    endloop
  endfacet
  facet normal  7.071068e-001 -7.071067e-001  0.000000e+000
    outer loop
      vertex  2.298097e+001 -4.419418e+001  0.000000e+000
      vertex -1.421085e-014 -6.717515e+001  2.500000e+001
      vertex -1.421085e-014 -6.717515e+001  0.000000e+000
    endloop
  endfacet
  facet normal -7.071068e-001 -7.071068e-001  -0.000000e+000
    outer loop
      vertex -1.767767e+001 -4.242641e+001  0.000000e+000
      vertex -1.767767e+001 -4.242641e+001  2.500000e+001
      vertex -4.242641e+001 -1.767767e+001  0.000000e+000
    endloop
  endfacet
  facet normal -7.071068e-001 -7.071068e-001  0.000000e+000
    outer loop
      vertex -4.242641e+001 -1.767767e+001  0.000000e+000
      vertex -1.767767e+001 -4.242641e+001  2.500000e+001
      vertex -4.242641e+001 -1.767767e+001  2.500000e+001
    endloop
  endfacet
  facet normal  7.071068e-001 -7.071068e-001  0.000000e+000
    outer loop
      vertex -4.596194e+001 -2.121320e+001  0.000000e+000
      vertex -4.242641e+001 -1.767767e+001  0.000000e+000
      vertex -4.596194e+001 -2.121320e+001  2.500000e+001
    endloop
  endfacet
  facet normal  7.071068e-001 -7.071068e-001  0.000000e+000
    outer loop
      vertex -4.596194e+001 -2.121320e+001  2.500000e+001
      vertex -4.242641e+001 -1.767767e+001  0.000000e+000
      vertex -4.242641e+001 -1.767767e+001  2.500000e+001
    endloop
  endfacet
  facet normal -7.071067e-001 -7.071069e-001  0.000000e+000
    outer loop
      vertex -4.596194e+001 -2.121320e+001  2.500000e+001
      vertex -6.717515e+001  7.105427e-015  2.500000e+001
      vertex -4.596194e+001 -2.121320e+001  0.000000e+000
    endloop
  endfacet
  facet normal -7.071067e-001 -7.071069e-001  0.000000e+000
    outer loop
      vertex -4.596194e+001 -2.121320e+001  0.000000e+000
      vertex -6.717515e+001  7.105427e-015  2.500000e+001
      vertex -6.717515e+001  7.105427e-015  0.000000e+000
    endloop
  endfacet
  facet normal -7.071067e-001  7.071068e-001  0.000000e+000
    outer loop
      vertex -4.772971e+001  1.944544e+001  2.500000e+001
      vertex -4.772971e+001  1.944544e+001  0.000000e+000
      vertex -6.717515e+001  7.105427e-015  2.500000e+001
    endloop
  endfacet
  facet normal -7.071067e-001  7.071068e-001  0.000000e+000
    outer loop
      vertex -6.717515e+001  7.105427e-015  2.500000e+001
      vertex -4.772971e+001  1.944544e+001  0.000000e+000
      vertex -6.717515e+001  7.105427e-015  0.000000e+000
    endloop
  endfacet
  facet normal  -0.000000e+000  0.000000e+000 -1.000000e+000
    outer loop
      vertex -9.092674e+000  9.092674e+000  0.000000e+000
      vertex -6.187184e+000 -2.209709e+001  0.000000e+000
      vertex -1.767767e+001 -4.242641e+001  0.000000e+000
    endloop
  endfacet
  facet normal  -0.000000e+000  0.000000e+000 -9.999999e-001
    outer loop
      vertex -6.187184e+000 -2.209709e+001  0.000000e+000
      vertex -1.767767e+000 -2.651650e+001  0.000000e+000
      vertex -1.767767e+001 -4.242641e+001  0.000000e+000
    endloop
  endfacet
  facet normal  0.000000e+000  0.000000e+000 -1.000000e+000
    outer loop
      vertex -2.651650e+000 -1.856155e+001  0.000000e+000
      vertex -6.187184e+000 -2.209709e+001  0.000000e+000
      vertex -9.092674e+000  9.092674e+000  0.000000e+000
    endloop
  endfacet
  facet normal  0.000000e+000  0.000000e+000 -1.000000e+000
    outer loop
      vertex -2.651650e+000 -1.856155e+001  0.000000e+000
      vertex -9.092674e+000  9.092674e+000  0.000000e+000
      vertex  1.856155e+001  2.651650e+000  0.000000e+000
    endloop
  endfacet
  facet normal  0.000000e+000  -0.000000e+000 -9.999999e-001
    outer loop
      vertex -2.651650e+000 -1.856155e+001  0.000000e+000
      vertex  1.856155e+001  2.651650e+000  0.000000e+000
      vertex  2.632612e+001 -2.632612e+001  0.000000e+000
    endloop
  endfacet
  facet normal  0.000000e+000  0.000000e+000 -1.000000e+000
    outer loop
      vertex -4.242641e+001 -1.767767e+001  0.000000e+000
      vertex -4.596194e+001 -2.121320e+001  0.000000e+000
      vertex -6.717515e+001  7.105427e-015  0.000000e+000
    endloop
  endfacet
  facet normal  0.000000e+000  0.000000e+000 -9.999999e-001
    outer loop
      vertex -4.242641e+001 -1.767767e+001  0.000000e+000
      vertex -6.717515e+001  7.105427e-015  0.000000e+000
      vertex -4.772971e+001  1.944544e+001  0.000000e+000
    endloop
  endfacet
  facet normal  0.000000e+000  0.000000e+000 -1.000000e+000
    outer loop
      vertex -4.242641e+001 -1.767767e+001  0.000000e+000
      vertex -4.772971e+001  1.944544e+001  0.000000e+000
      vertex -9.092674e+000  9.092674e+000  0.000000e+000
    endloop
  endfacet
  facet normal  0.000000e+000  0.000000e+000 -1.000000e+000
    outer loop
      vertex -4.242641e+001 -1.767767e+001  0.000000e+000
      vertex -9.092674e+000  9.092674e+000  0.000000e+000
      vertex -1.767767e+001 -4.242641e+001  0.000000e+000
    endloop
  endfacet
  facet normal  0.000000e+000  0.000000e+000 -1.000000e+000
    outer loop
      vertex -1.421085e-014 -6.717515e+001  0.000000e+000
      vertex -2.121320e+001 -4.596194e+001  0.000000e+000
      vertex -1.767767e+001 -4.242641e+001  0.000000e+000
    endloop
  endfacet
  facet normal  0.000000e+000  0.000000e+000 -1.000000e+000
    outer loop
      vertex -1.421085e-014 -6.717515e+001  0.000000e+000
      vertex -1.767767e+001 -4.242641e+001  0.000000e+000
      vertex -1.767767e+000 -2.651650e+001  0.000000e+000
    endloop
  endfacet
  facet normal  0.000000e+000  0.000000e+000 -1.000000e+000
    outer loop
      vertex -1.421085e-014 -6.717515e+001  0.000000e+000
      vertex -1.767767e+000 -2.651650e+001  0.000000e+000
      vertex  1.767767e+000 -2.298097e+001  0.000000e+000
    endloop
  endfacet
  facet normal  0.000000e+000  -0.000000e+000 -1.000000e+000
    outer loop
      vertex -1.421085e-014 -6.717515e+001  0.000000e+000
      vertex  1.767767e+000 -2.298097e+001  0.000000e+000
      vertex  2.298097e+001 -4.419418e+001  0.000000e+000
    endloop
  endfacet
  facet normal  0.000000e+000  0.000000e+000 -1.000000e+000
    outer loop
      vertex  4.419418e+001 -2.298097e+001  0.000000e+000
      vertex  2.298097e+001 -1.767767e+000  0.000000e+000
      vertex  2.651650e+001  1.767767e+000  0.000000e+000
    endloop
  endfacet
  facet normal  0.000000e+000  0.000000e+000 -1.000000e+000
    outer loop
      vertex  4.419418e+001 -2.298097e+001  0.000000e+000
      vertex  2.651650e+001  1.767767e+000  0.000000e+000
      vertex  4.242641e+001  1.767767e+001  0.000000e+000
    endloop
  endfacet
  facet normal  0.000000e+000  0.000000e+000 -1.000000e+000
    outer loop
      vertex  4.419418e+001 -2.298097e+001  0.000000e+000
      vertex  4.242641e+001  1.767767e+001  0.000000e+000
      vertex  4.596194e+001  2.121320e+001  0.000000e+000
    endloop
  endfacet
  facet normal  0.000000e+000  -0.000000e+000 -1.000000e+000
    outer loop
      vertex  4.419418e+001 -2.298097e+001  0.000000e+000
      vertex  4.596194e+001  2.121320e+001  0.000000e+000
      vertex  6.717515e+001 -7.105427e-015  0.000000e+000
    endloop
  endfacet
  facet normal  0.000000e+000  0.000000e+000 -9.999999e-001
    outer loop
      vertex  2.651650e+001  1.767767e+000  0.000000e+000
      vertex  2.209709e+001  6.187184e+000  0.000000e+000
      vertex  4.242641e+001  1.767767e+001  0.000000e+000
    endloop
  endfacet
  facet normal  -0.000000e+000  0.000000e+000 -9.999999e-001
    outer loop
      vertex  4.242641e+001  1.767767e+001  0.000000e+000
      vertex  2.209709e+001  6.187184e+000  0.000000e+000
      vertex  1.767767e+001  4.242641e+001  0.000000e+000
    endloop
  endfacet
  facet normal  0.000000e+000  0.000000e+000 -1.000000e+000
    outer loop
      vertex  2.209709e+001  6.187184e+000  0.000000e+000
      vertex  1.856155e+001  2.651650e+000  0.000000e+000
      vertex  1.767767e+001  4.242641e+001  0.000000e+000
    endloop
  endfacet
  facet normal  0.000000e+000  -0.000000e+000 -1.000000e+000
    outer loop
      vertex  1.767767e+001  4.242641e+001  0.000000e+000
      vertex  1.856155e+001  2.651650e+000  0.000000e+000
      vertex -9.092674e+000  9.092674e+000  0.000000e+000
    endloop
  endfacet
  facet normal  0.000000e+000  0.000000e+000 -1.000000e+000
    outer loop
      vertex -9.092674e+000  9.092674e+000  0.000000e+000
      vertex -1.944544e+001  4.772971e+001  0.000000e+000
      vertex  1.767767e+001  4.242641e+001  0.000000e+000
    endloop
  endfacet
  facet normal  0.000000e+000  0.000000e+000 -9.999999e-001
    outer loop
      vertex  1.767767e+001  4.242641e+001  0.000000e+000
      vertex -1.944544e+001  4.772971e+001  0.000000e+000
      vertex  1.421085e-014  6.717515e+001  0.000000e+000
    endloop
  endfacet
  facet normal  0.000000e+000  0.000000e+000 -1.000000e+000
    outer loop
      vertex  1.767767e+001  4.242641e+001  0.000000e+000
      vertex  1.421085e-014  6.717515e+001  0.000000e+000
      vertex  2.121320e+001  4.596194e+001  0.000000e+000
    endloop
  endfacet
  facet normal  2.588190e-001  9.659258e-001  -0.000000e+000
    outer loop
      vertex -9.092674e+000  9.092674e+000  2.500000e+001
      vertex -9.092674e+000  9.092674e+000  0.000000e+000
      vertex -4.772971e+001  1.944544e+001  2.500000e+001
    endloop
  endfacet
  facet normal  2.588190e-001  9.659258e-001  0.000000e+000
    outer loop
      vertex -4.772971e+001  1.944544e+001  2.500000e+001
      vertex -9.092674e+000  9.092674e+000  0.000000e+000
      vertex -4.772971e+001  1.944544e+001  0.000000e+000
    endloop
  endfacet
  facet normal -9.659258e-001 -2.588190e-001  0.000000e+000
    outer loop
      vertex -9.092674e+000  9.092674e+000  2.500000e+001
      vertex -1.944544e+001  4.772971e+001  2.500000e+001
      vertex -9.092674e+000  9.092674e+000  0.000000e+000
    endloop
  endfacet
  facet normal -9.659258e-001 -2.588190e-001  0.000000e+000
    outer loop
      vertex -9.092674e+000  9.092674e+000  0.000000e+000
      vertex -1.944544e+001  4.772971e+001  2.500000e+001
      vertex -1.944544e+001  4.772971e+001  0.000000e+000
    endloop
  endfacet
endsolid CATIA STL
