<?xml version="1.0" encoding="UTF-8" standalone="no"?>
<svg
   xmlns:dsy="http://www.3ds.com/print"
   xmlns:dc="http://purl.org/dc/elements/1.1/"
   xmlns:cc="http://creativecommons.org/ns#"
   xmlns:rdf="http://www.w3.org/1999/02/22-rdf-syntax-ns#"
   xmlns:svg="http://www.w3.org/2000/svg"
   xmlns="http://www.w3.org/2000/svg"
   xmlns:sodipodi="http://sodipodi.sourceforge.net/DTD/sodipodi-0.dtd"
   xmlns:inkscape="http://www.inkscape.org/namespaces/inkscape"
   id="svg2"
   xlink="http://www.w3.org/1999/xlink"
   height="900"
   dsy:text-version="20000"
   width="900"
   version="1.1"
   viewBox="0 0 900 900"
   inkscape:version="0.91+devel+osxmenu r12922"
   sodipodi:docname="2D MASTER - WITH TEXT CONVERTED TO PATH.svg"
   inkscape:export-filename="/Volumes/Backup/Documents/Stuff/REPRAP/Models/Swindon Hackspace Logo/Swindon Makerspace/IMAGE 2D - MakerSpace WITH TEXT.png"
   inkscape:export-xdpi="64"
   inkscape:export-ydpi="64">
  <defs
     id="defs3345" />
  <sodipodi:namedview
     pagecolor="#ffffff"
     bordercolor="#666666"
     borderopacity="1"
     objecttolerance="10"
     gridtolerance="10"
     guidetolerance="10"
     inkscape:pageopacity="0"
     inkscape:pageshadow="2"
     inkscape:window-width="1440"
     inkscape:window-height="760"
     id="namedview3343"
     showgrid="false"
     inkscape:zoom="0.5525"
     inkscape:cx="155.71099"
     inkscape:cy="432.20437"
     inkscape:window-x="-3"
     inkscape:window-y="23"
     inkscape:window-maximized="0"
     inkscape:current-layer="layer2"
     fit-margin-top="0"
     fit-margin-left="0"
     fit-margin-right="0"
     fit-margin-bottom="0" />
  <title
     id="title4024">Swindon Hackspace Logo</title>
  <metadata
     id="metadata68">
    <rdf:RDF>
      <cc:Work
         rdf:about="">
        <dc:format>image/svg+xml</dc:format>
        <dc:type
           rdf:resource="http://purl.org/dc/dcmitype/StillImage" />
        <dc:title>Swindon Hackspace Logo</dc:title>
        <cc:license
           rdf:resource="http://creativecommons.org/licenses/by-nc-sa/4.0/" />
        <dc:date>03/08/2013</dc:date>
        <dc:creator>
          <cc:Agent>
            <dc:title>Steve Wood</dc:title>
          </cc:Agent>
        </dc:creator>
        <dc:publisher>
          <cc:Agent>
            <dc:title>Steve Wood</dc:title>
          </cc:Agent>
        </dc:publisher>
        <dc:contributor>
          <cc:Agent>
            <dc:title>Members of the Swindon Hackspace</dc:title>
          </cc:Agent>
        </dc:contributor>
        <dc:rights>
          <cc:Agent>
            <dc:title>Swindon Hackspace</dc:title>
          </cc:Agent>
        </dc:rights>
        <dc:source>https://github.com/snhack/HackspaceLogo</dc:source>
      </cc:Work>
      <cc:License
         rdf:about="http://creativecommons.org/licenses/by-nc-sa/4.0/">
        <cc:permits
           rdf:resource="http://creativecommons.org/ns#Reproduction" />
        <cc:permits
           rdf:resource="http://creativecommons.org/ns#Distribution" />
        <cc:requires
           rdf:resource="http://creativecommons.org/ns#Notice" />
        <cc:requires
           rdf:resource="http://creativecommons.org/ns#Attribution" />
        <cc:prohibits
           rdf:resource="http://creativecommons.org/ns#CommercialUse" />
        <cc:permits
           rdf:resource="http://creativecommons.org/ns#DerivativeWorks" />
        <cc:requires
           rdf:resource="http://creativecommons.org/ns#ShareAlike" />
      </cc:License>
    </rdf:RDF>
  </metadata>
  <g
     inkscape:groupmode="layer"
     id="layer1"
     inkscape:label="Construction"
     style="display:none"
     transform="translate(125.00382,174.0786)">
    <path
       style="fill:none;fill-opacity:0.94117647;stroke:#000000;stroke-width:1.4250387;stroke-miterlimit:4;stroke-dasharray:none;stroke-opacity:1"
       id="path3347-0"
       sodipodi:type="arc"
       sodipodi:cx="-324.99622"
       sodipodi:cy="275.92145"
       sodipodi:rx="424.28674"
       sodipodi:ry="424.28738"
       sodipodi:start="1.0918945"
       sodipodi:end="3.7032296"
       d="M -129.48284,652.47714 A 424.28674,424.28738 0 0 1 -637.16297,563.27385 424.28674,424.28738 0 0 1 -684.10592,49.957699"
       transform="scale(-1,1)"
       sodipodi:open="true" />
    <path
       style="fill:none;fill-opacity:0.94117647;stroke:#000000;stroke-width:1.00578678;stroke-miterlimit:4;stroke-dasharray:none;stroke-opacity:1"
       id="path3347"
       sodipodi:type="arc"
       sodipodi:cx="324.99652"
       sodipodi:cy="275.92175"
       sodipodi:rx="299.4599"
       sodipodi:ry="299.46039"
       sodipodi:start="2.6695176"
       sodipodi:end="5.1145742"
       d="M 58.289567,412.09698 A 299.4599,299.46039 0 0 1 105.97759,71.698655 299.4599,299.46039 0 0 1 442.21415,0.35595866 L 324.99652,275.92175 Z" />
  </g>
  <g
     inkscape:groupmode="layer"
     id="layer2"
     inkscape:label="Text"
     style="display:inline"
     transform="translate(125.00382,174.0786)">
    <g
       style="font-style:normal;font-variant:normal;font-weight:bold;font-stretch:normal;font-size:177.5px;line-height:125%;font-family:'Titillium Web';-inkscape-font-specification:'Titillium Web, Bold';text-align:start;letter-spacing:3px;word-spacing:0px;writing-mode:lr-tb;text-anchor:start;fill:#ff7700;fill-opacity:1;stroke:none;stroke-width:1px;stroke-linecap:butt;stroke-linejoin:miter;stroke-opacity:1"
       aria-label="SWINDON"
       id="text3357">
      <path
         d="m -71.323248,408.36976 q 5.596952,16.5175 16.507592,12.82043 4.849174,-1.64314 6.038897,-6.60755 1.189722,-4.96441 0.955426,-21.60968 -0.285644,-16.79681 3.873433,-24.96355 4.00754,-8.1154 16.736621,-12.42864 16.214424,-5.49426 27.8865729,1.53147 11.6721491,7.02574 17.0637081,22.93709 4.005158,11.81986 6.170622,30.17586 l 0.787777,5.81476 -16.9332987,3.37274 Q 3.6111065,398.18251 -0.03461424,387.4234 -5.4775212,371.36052 -18.812749,375.87916 q -4.849173,1.64314 -6.293129,6.35582 -1.495304,4.56115 -0.929157,16.70164 0.955678,19.27274 -3.39876,28.85717 -4.557322,9.48424 -16.831793,13.64344 -15.456741,5.23752 -26.217162,-1.59035 -10.760421,-6.82786 -16.306025,-23.19382 -3.799765,-11.21372 -6.622724,-29.51586 l -0.787777,-5.81476 17.082327,-3.93005 q 4.815507,22.18825 7.793701,30.97737 z"
         style="font-style:normal;font-variant:normal;font-weight:bold;font-stretch:normal;font-size:160px;line-height:125%;font-family:'Titillium Web';-inkscape-font-specification:'Titillium Web, Bold';text-align:start;letter-spacing:3px;writing-mode:lr-tb;text-anchor:start;fill:#ff7700;fill-opacity:1"
         id="path3373" />
      <path
         d="m -114.35243,313.37377 1.796,-23.13038 90.690601,-6.43861 0.185793,-2.3928 -88.139034,-26.42248 1.98179,-25.52317 91.161274,-12.50037 0.185793,-2.3928 -88.609717,-20.36072 1.79601,-23.13037 106.863284,29.1602 -2.58871834,33.33965 -83.79708566,10.66495 81.1464362,23.4723 -2.5887184,33.33964 -110.0837078,12.31496 z"
         style="font-style:normal;font-variant:normal;font-weight:bold;font-stretch:normal;font-size:160px;line-height:125%;font-family:'Titillium Web';-inkscape-font-specification:'Titillium Web, Bold';text-align:start;letter-spacing:3px;writing-mode:lr-tb;text-anchor:start;fill:#ff7700;fill-opacity:1"
         id="path3375" />
      <path
         d="m 21.563796,155.30076 -99.703613,-43.55031 8.838152,-20.233966 99.703612,43.550316 -8.838151,20.23396 z"
         style="font-style:normal;font-variant:normal;font-weight:bold;font-stretch:normal;font-size:160px;line-height:125%;font-family:'Titillium Web';-inkscape-font-specification:'Titillium Web, Bold';text-align:start;letter-spacing:3px;writing-mode:lr-tb;text-anchor:start;fill:#ff7700;fill-opacity:1"
         id="path3377" />
      <path
         d="M 44.398043,103.68945 -39.963016,34.982452 -16.420765,6.0763828 69.62356,42.312715 70.633957,41.072111 1.1601433,-15.510123 15.103623,-32.630456 99.464682,36.076543 76.528669,64.23825 -10.121894,28.74628 -11.132292,29.986884 58.341522,86.569118 44.398043,103.68945 Z"
         style="font-style:normal;font-variant:normal;font-weight:bold;font-stretch:normal;font-size:160px;line-height:125%;font-family:'Titillium Web';-inkscape-font-specification:'Titillium Web, Bold';text-align:start;letter-spacing:3px;writing-mode:lr-tb;text-anchor:start;fill:#ff7700;fill-opacity:1"
         id="path3379" />
      <path
         d="M 160.14087,-5.7383368 128.37118,12.514789 74.16976,-81.823145 105.93945,-100.07627 q 12.20844,-7.0143 21.63063,-8.92174 9.34248,-2.04618 17.07062,1.44836 7.78717,3.2761 14.07502,10.366076 6.20814,6.951243 13.54127,19.714611 7.33314,12.763367 10.66927,22.102823 3.25642,9.200723 2.7817,18.330818 -0.41569,8.911655 -6.70858,16.586828 -6.37261,7.536439 -18.85851,14.7101572 z m -1.40498,-49.0153652 q -2.27319,-4.598848 -6.73683,-12.367855 -4.54336,-7.907738 -7.80836,-12.305803 -3.265,-4.398065 -7.57781,-7.086948 -4.3128,-2.688884 -9.27185,-1.684967 -4.90002,0.785476 -11.83664,4.770875 l -12.62463,7.253426 35.07151,61.042192 12.62463,-7.253426 q 10.40492,-5.978098 12.09292,-13.959994 1.55228,-6.612232 -3.93294,-18.4075 z"
         style="font-style:normal;font-variant:normal;font-weight:bold;font-stretch:normal;font-size:160px;line-height:125%;font-family:'Titillium Web';-inkscape-font-specification:'Titillium Web, Bold';text-align:start;letter-spacing:3px;writing-mode:lr-tb;text-anchor:start;fill:#ff7700;fill-opacity:1"
         id="path3381" />
      <path
         d="m 249.07966,-68.18253 q 6.11398,7.408215 18.89433,5.257792 12.78035,-2.150422 15.97551,-11.124994 3.3264,-9.158902 0.0609,-28.566098 -3.292,-19.56498 -9.51218,-27.60432 -6.22017,-8.03934 -18.84274,-5.91547 -12.62256,2.12388 -15.86931,11.75612 -3.24675,9.63225 0.0452,29.19723 3.26546,19.407194 9.2482,26.99974 z m 54.24657,5.150391 q -7.71021,14.926244 -32.16643,19.04125 -24.45622,4.115005 -36.78434,-7.43959 -12.19689,-11.738925 -16.9756,-40.139697 -4.77872,-28.400774 2.85184,-43.800364 7.76179,-15.58392 32.21801,-19.69893 24.45622,-4.115 36.73275,8.09727 12.40777,12.02794 17.18649,40.42871 4.77871,28.400776 -3.06272,43.511351 z"
         style="font-style:normal;font-variant:normal;font-weight:bold;font-stretch:normal;font-size:160px;line-height:125%;font-family:'Titillium Web';-inkscape-font-specification:'Titillium Web, Bold';text-align:start;letter-spacing:3px;writing-mode:lr-tb;text-anchor:start;fill:#ff7700;fill-opacity:1"
         id="path3383" />
      <path
         d="m 348.01976,-52.526989 21.93352,-106.566231 36.51461,7.51546 7.63837,93.05027 1.56715,0.322552 18.06289,-87.760422 21.62668,4.45121 -21.93352,106.566231 -35.57431,-7.321925 -8.57866,-93.243806 -1.56715,-0.32255 -18.0629,87.760425 -21.62668,-4.451214 z"
         style="font-style:normal;font-variant:normal;font-weight:bold;font-stretch:normal;font-size:160px;line-height:125%;font-family:'Titillium Web';-inkscape-font-specification:'Titillium Web, Bold';text-align:start;letter-spacing:3px;writing-mode:lr-tb;text-anchor:start;fill:#ff7700;fill-opacity:1"
         id="path3385" />
    </g>
    <g
       style="font-style:normal;font-variant:normal;font-weight:bold;font-stretch:normal;font-size:177.5px;line-height:120.00000477%;font-family:'Titillium Web';-inkscape-font-specification:'Titillium Web, Bold';text-align:start;letter-spacing:22px;word-spacing:0px;writing-mode:lr-tb;text-anchor:start;fill:#ff7700;fill-opacity:1;stroke:none;stroke-width:1px;stroke-linecap:butt;stroke-linejoin:miter;stroke-opacity:1"
       aria-label="MAKERSPACE"
       id="text4181">
      <path
         d="m 134.54657,674.03634 33.96729,-103.3618 35.72062,11.73869 -6.53582,81.38755 43.01646,-69.39909 35.72062,11.73869 -33.96729,103.36181 -20.97636,-6.89336 26.27469,-79.9534 -2.28004,-0.74928 -44.99249,68.74972 -20.97637,-6.89336 4.55979,-82.03692 -2.28004,-0.74928 -26.2747,79.9534 -20.97636,-6.89337 z"
         style="font-size:160px;line-height:100%;letter-spacing:14.31998539px"
         id="path3388" />
      <path
         d="m 275.91385,713.20335 25.35984,-108.59829 41.91863,0.33931 23.59855,108.99458 -22.07927,-0.17872 -4.16057,-19.71432 -38.07875,-0.30823 -4.47915,19.64439 -22.07928,-0.17872 z m 42.33164,-90.22032 -11.45794,51.58895 29.75902,0.24088 -10.62133,-51.76766 -7.67975,-0.0622 z"
         style="font-size:160px;line-height:100%;letter-spacing:14.31998539px"
         id="path3390" />
      <path
         d="m 420.41546,703.2571 -21.39072,5.47389 -26.97278,-105.40356 21.39072,-5.47388 11.86009,46.34656 13.86382,-5.19931 5.89715,-49.23909 24.33582,-6.22754 -9.41471,58.72733 37.00752,46.51756 -24.64583,6.30687 -28.42005,-37.48451 -13.86382,5.19931 10.35279,40.45637 z"
         style="font-size:160px;line-height:100%;letter-spacing:14.31998539px"
         id="path3392" />
      <path
         d="m 506.67243,675.44087 -52.24372,-95.43601 61.75271,-33.80476 9.21948,16.84165 -42.38482,23.20235 12.21582,22.31519 33.96399,-18.59262 9.06582,16.56096 -33.96399,18.59262 12.52313,22.87657 42.38481,-23.20236 9.21949,16.84165 -61.75272,33.80476 z"
         style="font-size:160px;line-height:100%;letter-spacing:14.31998539px"
         id="path3394" />
      <path
         d="m 588.86365,578.51513 25.03455,26.53416 -16.06016,15.15249 -74.66442,-79.13699 30.72377,-28.98737 q 27.9307,-26.35215 52.52604,-0.28349 14.60349,15.47826 9.88313,33.79014 l 39.83683,19.6076 -17.57307,16.57989 -34.2284,-17.85992 -15.47827,14.60349 z m 1.93991,-27.78708 q 5.70251,-5.38023 5.20157,-11.50678 -0.50095,-6.12656 -5.88118,-11.82908 -5.38023,-5.70251 -11.59028,-6.22266 -6.09366,-0.62994 -11.67981,4.64049 l -14.66361,13.83488 23.71693,25.13763 14.89638,-14.05448 z"
         style="font-size:160px;line-height:100%;letter-spacing:14.31998539px"
         id="path3396" />
      <path
         d="m 618.91221,458.79154 q -9.29102,14.75908 0.4581,20.89627 4.33294,2.72764 8.93626,0.52078 4.60332,-2.20686 17.3749,-12.88426 12.85682,-10.8128 21.81795,-12.73419 8.82572,-2.00662 20.19969,5.15343 14.48828,9.12055 16.395,22.60997 1.90672,13.48942 -7.04335,27.70688 -6.64862,10.56154 -19.53031,23.81651 l -4.01642,4.27789 -13.29493,-11.01621 q 13.85927,-16.60989 19.91122,-26.22361 9.03531,-14.35286 -2.88028,-21.85387 -4.33294,-2.72764 -8.90119,-0.87683 -4.48301,1.71541 -13.54893,9.80991 -14.35604,12.89404 -24.5407,15.5577 -10.23482,2.44303 -21.20258,-4.46131 -13.81125,-8.69435 -15.29667,-21.35137 -1.48541,-12.65701 7.72037,-27.28068 6.30767,-10.01993 18.73298,-23.75126 l 4.01642,-4.27788 13.82146,10.78047 q -14.18514,17.7282 -19.12899,25.58166 z"
         style="font-size:160px;line-height:100%;letter-spacing:14.31998539px"
         id="path3398" />
      <path
         d="m 712.63144,396.7715 -5.58919,17.02607 30.09967,9.8809 -6.88668,20.97856 L 626.88262,410.72264 639.3585,372.718 q 12.07665,-36.78849 47.95303,-25.01126 18.09021,5.93852 24.72538,18.5575 6.53305,12.41705 0.59453,30.50726 z m -23.52738,11.13746 5.53929,-16.87406 q 5.14006,-15.65791 -14.31831,-22.04556 -9.57717,-3.14392 -14.92926,-0.69085 -5.50411,2.40316 -8.14899,10.46015 l -5.53929,16.87406 37.39656,12.27626 z"
         style="font-size:160px;line-height:100%;letter-spacing:14.31998539px"
         id="path3400" />
      <path
         d="M 758.84367,348.72328 651.85438,317.259 l 2.71074,-41.83226 110.15528,-17.39325 -1.42779,22.03379 -19.91817,3.03836 -2.46243,38.0003 19.35946,5.58356 -1.4278,22.03378 z m -87.68041,-47.36896 50.85794,14.35876 1.92442,-29.69771 -52.28573,7.67502 -0.49663,7.66393 z"
         style="font-size:160px;line-height:100%;letter-spacing:14.31998539px"
         id="path3402" />
      <path
         d="m 746.83877,159.82889 q 6.70183,16.00841 9.17417,29.3818 2.47235,13.37339 0.65174,22.00824 -1.82061,8.63485 -8.21447,14.5355 -6.39386,5.90066 -15.82862,9.43469 -9.43475,3.53403 -24.22415,6.26815 -30.99479,5.73001 -44.70926,-0.6837 -13.90089,-6.54197 -18.23476,-29.98473 -2.50143,-13.53073 -1.54017,-32.0948 l 17.42309,-2.57016 q 0.51954,16.01236 2.43924,26.3964 1.89061,10.22671 5.53704,14.10851 3.4891,3.91088 11.60567,4.68832 8.08749,0.62011 26.6529,-2.81208 18.56541,-3.43219 25.01744,-9.01818 6.26561,-5.71424 3.88053,-18.61563 -2.41417,-13.05872 -7.32188,-27.28357 l 17.69149,-3.75876 z"
         style="font-size:160px;line-height:100%;letter-spacing:14.31998539px"
         id="path3404" />
      <path
         d="m 737.34066,125.60339 -99.15906,44.77634 -28.97293,-64.16175 17.49866,-7.901703 19.88596,44.038293 23.18572,-10.46977 -15.93511,-35.288957 17.20702,-7.770012 15.93511,35.288959 23.76901,-10.73315 -19.88597,-44.03829 17.49866,-7.901708 28.97293,64.161748 z"
         style="font-size:160px;line-height:100%;letter-spacing:14.31998539px"
         id="path3406" />
    </g>
  </g>
  <g
     inkscape:groupmode="layer"
     id="layer3"
     inkscape:label="S">
    <path
       inkscape:connector-curvature="0"
       d="m 310.55052,267.10708 4.07357,15.20376 c 0.78263,2.92318 -0.24058,6.25258 -2.5297,8.23157 -7.68977,6.6507 -14.89725,13.85881 -21.54846,21.54858 -1.97887,2.28946 -5.3083,3.31269 -8.23142,2.52984 l -15.20072,-4.0738 c -3.16939,-0.84963 -6.80206,0.45652 -8.70496,3.12994 -8.61578,12.11105 -16.07947,25.04085 -22.258,38.55798 -1.36485,2.98398 -0.68138,6.78323 1.63785,9.10435 l 11.13119,11.12854 c 2.14,2.1399 2.91919,5.53512 1.92648,8.394 -3.33445,9.60522 -5.97277,19.45148 -7.88757,29.43703 -0.56972,2.97165 -2.94135,5.52181 -5.86382,6.3053 l -15.20399,4.07381 c -3.16885,0.85015 -5.66035,3.79793 -5.97091,7.06423 -1.40676,14.79547 -1.40676,29.72414 0,44.51961 0.31052,3.2663 2.80206,6.21404 5.97091,7.06423 l 15.20399,4.07381 c 2.92247,0.78341 5.29411,3.33365 5.86382,6.3053 2.93928,15.32603 7.58694,30.32456 13.82966,44.6266 1.25317,2.87154 4.29746,4.86483 7.43028,4.86516 l 41.63415,0 c 2.12177,-4.6e-4 4.23033,-0.874 5.73086,-2.37418 L 558.19017,290.19143 c 1.50118,-1.50116 3.61116,-2.37505 5.73413,-2.37483 l 134.0065,0 c 2.74333,-5.7e-4 5.44082,1.49887 6.88873,3.82916 17.16453,27.62376 29.7945,58.05858 37.23276,89.71935 7.4388,31.66077 9.68349,64.53548 6.61703,96.91348 -3.06634,32.378 -11.44229,64.24728 -24.6923,93.9485 -13.25,29.70121 -31.36861,57.22344 -53.41374,81.13331 -22.04514,23.91097 -48.00699,44.20085 -76.53522,59.81399 -28.52823,15.61314 -59.61193,26.54409 -91.63332,32.22408 -32.0214,5.67955 -64.96848,6.10552 -97.12633,1.25564 -32.15784,-4.84977 -63.51335,-14.97342 -92.43566,-29.84422 -2.26051,-1.16296 -3.90906,-3.4462 -4.30172,-5.95793 -0.39269,-2.51172 0.48028,-5.18917 2.27798,-6.98672 l 55.15815,-55.16127 c 2.19993,-2.20038 5.72791,-2.95189 8.63357,-1.83903 11.5711,4.43198 23.53301,7.84117 35.70232,10.17463 2.97148,0.56976 5.5216,2.94152 6.30494,5.86415 l 4.07357,15.20486 c 0.85011,3.16891 3.79773,5.66066 7.06383,5.97113 14.79464,1.40685 29.72246,1.40685 44.5171,0 3.26611,-0.31053 6.21368,-2.80222 7.06383,-5.97113 l 4.07358,-15.20486 c 0.78336,-2.92263 3.33346,-5.29441 6.30494,-5.86415 9.98499,-1.91491 19.83134,-4.55349 29.43536,-7.88801 2.85872,-0.9928 6.25385,-0.21352 8.39353,1.92659 l 11.12791,11.13181 c 2.32098,2.31938 6.12002,3.00287 9.10384,1.63795 13.51636,-6.1791 26.44543,-13.64376 38.55579,-22.25926 2.67325,-1.9029 3.97937,-5.53578 3.12976,-8.70535 l -4.07357,-15.20158 c -0.78276,-2.92318 0.24046,-6.25279 2.52971,-8.23189 7.68976,-6.65103 14.89725,-13.85881 21.54845,-21.54967 1.97888,-2.28946 5.3083,-3.31269 8.23142,-2.52985 l 15.20072,4.07381 c 3.16939,0.84963 6.80206,-0.45652 8.70496,-3.12994 8.61578,-12.11105 16.07947,-25.04085 22.25801,-38.55798 1.36484,-2.98399 0.68137,-6.78323 -1.63786,-9.10435 l -11.13446,-11.11872 c -2.14,-2.1399 -2.91919,-5.53512 -1.92648,-8.394 3.33444,-9.60522 5.97276,-19.45147 7.88756,-29.43703 0.56973,-2.97165 2.94136,-5.5218 5.86382,-6.3053 l 15.204,-4.0738 c 3.16884,-0.85016 5.66034,-3.79794 5.97091,-7.06423 1.40676,-14.79548 1.40676,-29.72414 0,-44.51962 -0.31053,-3.26629 -2.80207,-6.21403 -5.97091,-7.06423 l -15.204,-4.07381 c -2.92246,-0.7834 -5.2941,-3.33354 -5.86382,-6.3053 -2.93927,-15.32603 -7.58693,-30.32456 -13.82965,-44.62659 -1.25317,-2.87155 -4.29746,-4.86484 -7.43029,-4.86517 l -41.63414,0 c -2.12177,4.5e-4 -4.23033,0.87399 -5.73086,2.37418 L 341.80811,609.80954 c -1.5013,1.50095 -3.61128,2.37461 -5.73414,2.37418 l -134.00649,0 c -2.74366,2.9e-4 -5.44115,-1.49975 -6.88873,-3.83047 -17.16345,-27.62376 -29.79342,-58.05858 -37.23167,-89.71935 -7.43847,-31.66077 -9.68283,-64.53548 -6.61627,-96.91348 3.06656,-32.378 11.44338,-64.24619 24.69339,-93.94741 13.25001,-29.70121 31.36861,-57.22235 53.41375,-81.13331 22.04514,-23.90988 48.00698,-44.19976 76.53521,-59.81399 28.52823,-15.61314 59.61193,-26.54409 91.63333,-32.22408 32.02139,-5.67955 64.96738,-6.10563 97.12523,-1.25597 32.15785,4.84966 63.51336,14.97342 92.43566,29.84313 2.26062,1.16296 3.90929,3.4462 4.30194,5.95804 0.39271,2.51183 -0.48035,5.18939 -2.2782,6.98683 l -55.15814,55.16127 c -2.20004,2.20027 -5.72803,2.95167 -8.63358,1.83871 -11.5711,-4.4321 -23.533,-7.8414 -35.70231,-10.17496 -2.97159,-0.56986 -5.52171,-2.94196 -6.30494,-5.86481 l -4.07358,-15.20377 c -0.84931,-3.16979 -3.79718,-5.66263 -7.06383,-5.97343 -14.79464,-1.40684 -29.72246,-1.40684 -44.5171,0 -3.26665,0.31086 -6.21455,2.80364 -7.06383,5.97343 l -4.07357,15.20377 c -0.78316,2.92285 -3.33325,5.29495 -6.30495,5.86481 -9.98499,1.91468 -19.83134,4.55305 -29.43536,7.88735 -2.85871,0.99288 -6.25374,0.21373 -8.39352,-1.92626 L 361.3385,237.78905 c -2.32034,-2.32036 -6.11948,-3.00506 -9.10384,-1.6409 -13.51745,6.17943 -26.44543,13.64376 -38.5558,22.26035 -2.67336,1.90279 -3.97947,5.53589 -3.12976,8.70557 z"
       style="fill:#ffbb00;stroke-width:1.09164453"
       id="path3364"
       inkscape:export-xdpi="65.741989"
       inkscape:export-ydpi="65.741989" />
  </g>
  <g
     inkscape:groupmode="layer"
     id="layer4"
     inkscape:label="M">
    <path
       style="display:inline;fill:#ff7700;fill-opacity:1;stroke:none;stroke-width:0.42165491;stroke-linecap:butt;stroke-linejoin:miter"
       inkscape:connector-curvature="0"
       id="path15731"
       d="M 518.80307,587.61326 461.46935,530.2763 c -3.16673,-3.16775 -8.30196,-3.16775 -11.46869,0 -3.16673,3.16776 -8.30195,3.16776 -11.46869,0 l -2.86393,-2.86734 c -3.16758,-3.1669 -3.16758,-8.30242 0,-11.46933 l 2.42283,-2.42297 c 2.04856,-2.04868 5.03448,-2.84868 7.83283,-2.0986 l 75.89898,20.33732 c 6.02664,1.61177 11.53975,-3.90165 9.92807,-9.92863 l -20.33616,-75.90328 c -0.75005,-2.79851 0.0499,-5.78459 2.09847,-7.83327 l 2.42283,-2.42296 c 3.16674,-3.1678 8.30196,-3.1678 11.46869,0 l 2.86718,2.86408 c 3.16757,3.16692 3.16757,8.30243 0,11.46934 -3.16758,3.16692 -3.16758,8.30243 0,11.46934 l 57.33372,57.33697 c 3.16672,3.16775 8.30195,3.16775 11.46869,0 l 63.06805,-63.07164 c 3.16758,-3.16691 3.16758,-8.30242 0,-11.46934 l -57.33371,-57.33824 c -3.16674,-3.16779 -8.30196,-3.16779 -11.46869,0 -3.16638,3.16556 -8.29907,3.16556 -11.46545,0 l -68.80565,-68.80696 c -3.1667,-3.16678 -3.1667,-8.30129 0,-11.46804 3.16651,-3.16675 3.16651,-8.301 0,-11.46771 L 455.735,237.8458 c -3.16673,-3.16779 -8.30195,-3.16779 -11.46869,0 l -54.02544,54.02882 c -2.04834,2.04853 -2.84826,5.03432 -2.09848,7.83263 l 28.73335,107.23377 c 1.61583,6.02987 -3.90182,11.54763 -9.93132,9.93155 l -107.2303,-28.73336 c -2.79769,-0.74913 -5.7825,0.0509 -7.83056,2.09894 l -54.02577,54.02784 c -3.1676,3.16692 -3.1676,8.30243 0,11.46934 l 57.33502,57.33697 c 3.16673,3.16775 8.30195,3.16775 11.46869,0 3.16638,-3.16559 8.29907,-3.16559 11.46545,0 l 68.80565,68.80954 c 3.1654,3.16655 3.1654,8.29954 0,11.46609 -3.16758,3.16692 -3.16758,8.30243 0,11.46934 l 57.33371,57.33696 c 3.16674,3.16776 8.30196,3.16776 11.46869,0 l 63.06807,-63.07163 c 3.16758,-3.16691 3.16758,-8.30242 0,-11.46934 z"
       sodipodi:nodetypes="ccccccccccccccccccccccccccccccccccccccccccccccc"
       inkscape:export-xdpi="65.741989"
       inkscape:export-ydpi="65.741989" />
  </g>
</svg>
