<?xml version="1.0" encoding="UTF-8" standalone="no"?>
<svg
   xmlns:dsy="http://www.3ds.com/print"
   xmlns:dc="http://purl.org/dc/elements/1.1/"
   xmlns:cc="http://creativecommons.org/ns#"
   xmlns:rdf="http://www.w3.org/1999/02/22-rdf-syntax-ns#"
   xmlns:svg="http://www.w3.org/2000/svg"
   xmlns="http://www.w3.org/2000/svg"
   xmlns:xlink="http://www.w3.org/1999/xlink"
   xmlns:sodipodi="http://sodipodi.sourceforge.net/DTD/sodipodi-0.dtd"
   xmlns:inkscape="http://www.inkscape.org/namespaces/inkscape"
   id="svg2"
   xlink="http://www.w3.org/1999/xlink"
   height="900"
   dsy:text-version="20000"
   width="900"
   version="1.1"
   viewBox="0 0 900 900"
   inkscape:version="0.91 r13725"
   sodipodi:docname="2D MASTER.svg"
   inkscape:export-filename="D:\Documents\Stuff\REPRAP\Models\Swindon Hackspace Logo\IMAGE 2D - Text.png"
   inkscape:export-xdpi="60"
   inkscape:export-ydpi="60">
  <defs
     id="defs3345" />
  <sodipodi:namedview
     pagecolor="#ffffff"
     bordercolor="#666666"
     borderopacity="1"
     objecttolerance="10"
     gridtolerance="10"
     guidetolerance="10"
     inkscape:pageopacity="0"
     inkscape:pageshadow="2"
     inkscape:window-width="1440"
     inkscape:window-height="838"
     id="namedview3343"
     showgrid="false"
     inkscape:zoom="0.5525"
     inkscape:cx="530.26053"
     inkscape:cy="450.22341"
     inkscape:window-x="-8"
     inkscape:window-y="-8"
     inkscape:window-maximized="1"
     inkscape:current-layer="layer1"
     fit-margin-top="0"
     fit-margin-left="0"
     fit-margin-right="0"
     fit-margin-bottom="0" />
  <title
     id="title4024">Swindon Hackspace Logo</title>
  <metadata
     id="metadata68">
    <rdf:RDF>
      <cc:Work
         rdf:about="">
        <dc:format>image/svg+xml</dc:format>
        <dc:type
           rdf:resource="http://purl.org/dc/dcmitype/StillImage" />
        <dc:title>Swindon Hackspace Logo</dc:title>
        <cc:license
           rdf:resource="http://creativecommons.org/licenses/by-nc-sa/3.0/" />
        <dc:date>03/08/2013</dc:date>
        <dc:creator>
          <cc:Agent>
            <dc:title>Steve Wood</dc:title>
          </cc:Agent>
        </dc:creator>
        <dc:publisher>
          <cc:Agent>
            <dc:title>Steve Wood</dc:title>
          </cc:Agent>
        </dc:publisher>
        <dc:contributor>
          <cc:Agent>
            <dc:title>Members of the Swindon Hackspace</dc:title>
          </cc:Agent>
        </dc:contributor>
        <dc:rights>
          <cc:Agent>
            <dc:title>Swindon Hackspace</dc:title>
          </cc:Agent>
        </dc:rights>
        <dc:source>https://github.com/snhack/HackspaceLogo</dc:source>
      </cc:Work>
      <cc:License
         rdf:about="http://creativecommons.org/licenses/by-nc-sa/3.0/">
        <cc:permits
           rdf:resource="http://creativecommons.org/ns#Reproduction" />
        <cc:permits
           rdf:resource="http://creativecommons.org/ns#Distribution" />
        <cc:requires
           rdf:resource="http://creativecommons.org/ns#Notice" />
        <cc:requires
           rdf:resource="http://creativecommons.org/ns#Attribution" />
        <cc:prohibits
           rdf:resource="http://creativecommons.org/ns#CommercialUse" />
        <cc:permits
           rdf:resource="http://creativecommons.org/ns#DerivativeWorks" />
        <cc:requires
           rdf:resource="http://creativecommons.org/ns#ShareAlike" />
      </cc:License>
    </rdf:RDF>
  </metadata>
  <path
     inkscape:connector-curvature="0"
     d="m 322.25382,282.46584 3.7317,13.927 c 0.71695,2.6777 -0.22039,5.7275 -2.3174,7.5403 -7.0444,6.0922 -13.647,12.695 -19.74,19.739 -1.8128,2.0972 -4.8628,3.0345 -7.5406,2.3174 l -13.925,-3.7317 c -2.9034,-0.77828 -6.2312,0.41818 -7.9744,2.8671 -7.8927,11.094 -14.73,22.938 -20.39,35.32 -1.2503,2.7334 -0.62419,6.2136 1.5004,8.3398 l 10.197,10.194 c 1.9604,1.9602 2.6742,5.0703 1.7648,7.6891 -3.0546,8.7986 -5.4715,17.818 -7.2256,26.965 -0.52191,2.7221 -2.6945,5.0581 -5.3717,5.7758 l -13.928,3.7317 c -2.9029,0.77876 -5.1853,3.479 -5.4698,6.471 -1.2887,13.553 -1.2887,27.228 0,40.781 0.28446,2.992 2.5669,5.6922 5.4698,6.471 l 13.928,3.7317 c 2.6772,0.71762 4.8498,3.0537 5.3717,5.7758 2.6926,14.039 6.9502,27.778 12.669,40.879 1.148,2.6304 3.9368,4.4563 6.8067,4.4566 l 38.14,0 c 1.9437,-4.2e-4 3.8753,-0.8006 5.2499,-2.1748 l 225.91,-225.92 c 1.3752,-1.3751 3.3081,-2.1756 5.2529,-2.1754 l 122.76,0 c 2.5131,-5.2e-4 4.9842,1.373 6.3106,3.5076 15.724,25.304 27.294,53.183 34.108,82.185 6.8145,29.002 8.8708,59.116 6.0617,88.775 -2.809,29.659 -10.482,58.852 -22.62,86.059 -12.138,27.207 -28.736,52.418 -48.931,74.32 -20.195,21.903 -43.978,40.489 -70.112,54.791 -26.134,14.302 -54.609,24.315 -83.943,29.518 -29.334,5.2026 -59.516,5.5928 -88.975,1.1502 -29.459,-4.4425 -58.183,-13.716 -84.678,-27.338 -2.0708,-1.0653 -3.581,-3.1568 -3.9407,-5.4576 -0.35974,-2.3008 0.43997,-4.7534 2.0868,-6.4 l 50.529,-50.529 c 2.0153,-2.0156 5.2472,-2.704 7.909,-1.6846 10.6,4.0598 21.558,7.1827 32.706,9.3202 2.7221,0.52191 5.0582,2.6945 5.7758,5.3717 l 3.7317,13.928 c 0.77876,2.9028 3.479,5.1853 6.471,5.4697 13.553,1.2887 27.228,1.2887 40.781,0 2.992,-0.28446 5.6922,-2.5669 6.471,-5.4697 l 3.7317,-13.928 c 0.71762,-2.6772 3.0537,-4.8498 5.7758,-5.3717 9.147,-1.7541 18.167,-4.1711 26.965,-7.2256 2.6188,-0.90943 5.729,-0.19559 7.6891,1.7648 l 10.194,10.197 c 2.1262,2.1246 5.6064,2.7507 8.3398,1.5004 12.382,-5.6602 24.226,-12.498 35.32,-20.39 2.4489,-1.7431 3.6454,-5.0709 2.8671,-7.9743 l -3.7317,-13.925 c -0.71707,-2.6777 0.22028,-5.7277 2.3174,-7.5406 7.0444,-6.0925 13.647,-12.695 19.74,-19.74 1.8128,-2.0972 4.8628,-3.0345 7.5406,-2.3174 l 13.925,3.7317 c 2.9034,0.77828 6.2312,-0.41818 7.9744,-2.8671 7.8927,-11.094 14.73,-22.938 20.39,-35.32 1.2503,-2.7334 0.62419,-6.2136 -1.5004,-8.3398 l -10.2,-10.185 c -1.9604,-1.9602 -2.6742,-5.0703 -1.7648,-7.6891 3.0546,-8.7986 5.4715,-17.818 7.2256,-26.965 0.52191,-2.7221 2.6945,-5.0581 5.3717,-5.7758 l 13.928,-3.7317 c 2.9029,-0.77876 5.1853,-3.479 5.4698,-6.471 1.2887,-13.553 1.2887,-27.228 0,-40.781 -0.28447,-2.992 -2.5669,-5.6922 -5.4698,-6.471 l -13.928,-3.7317 c -2.6772,-0.71762 -4.8498,-3.0536 -5.3717,-5.7758 -2.6926,-14.039 -6.9502,-27.778 -12.669,-40.879 -1.148,-2.6304 -3.9368,-4.4563 -6.8067,-4.4566 l -38.14,0 c -1.9437,4.1e-4 -3.8753,0.80059 -5.2499,2.1748 l -225.91,225.92 c -1.3753,1.3749 -3.3082,2.1752 -5.2529,2.1748 l -122.76,0 c -2.5134,2.7e-4 -4.9845,-1.3738 -6.3106,-3.5088 -15.723,-25.304 -27.293,-53.183 -34.107,-82.185 -6.8142,-29.002 -8.8702,-59.116 -6.061,-88.775 2.8092,-29.659 10.483,-58.851 22.621,-86.058 12.138,-27.207 28.736,-52.417 48.931,-74.32 20.195,-21.902 43.978,-40.488 70.112,-54.791 26.134,-14.302 54.609,-24.315 83.943,-29.518 29.334,-5.2026 59.515,-5.5929 88.974,-1.1505 29.459,4.4424 58.183,13.716 84.678,27.337 2.0709,1.0653 3.5812,3.1568 3.9409,5.4577 0.35975,2.3009 -0.44004,4.7536 -2.087,6.4001 l -50.529,50.529 c -2.0154,2.0155 -5.2473,2.7038 -7.909,1.6843 -10.6,-4.0599 -21.558,-7.1829 -32.706,-9.3205 -2.7222,-0.522 -5.0583,-2.6949 -5.7758,-5.3723 l -3.7317,-13.927 c -0.77803,-2.9036 -3.4785,-5.1871 -6.471,-5.4718 -13.553,-1.2887 -27.228,-1.2887 -40.781,0 -2.9925,0.28475 -5.693,2.5682 -6.471,5.4718 l -3.7317,13.927 c -0.71743,2.6774 -3.0535,4.8503 -5.7758,5.3723 -9.147,1.7539 -18.167,4.1707 -26.965,7.225 -2.6188,0.9095 -5.7289,0.19578 -7.6891,-1.7645 l -10.194,-10.196 c -2.1256,-2.1255 -5.6059,-2.7527 -8.3398,-1.5031 -12.383,5.6605 -24.226,12.498 -35.32,20.391 -2.449,1.743 -3.6455,5.071 -2.8671,7.9745 z"
     style="fill:#ffbb00"
     id="path3364" />
  <path
     inkscape:connector-curvature="0"
     d="m 644.461,444.7442 -52.554,-52.574 c -2.7519,-2.7536 -7.7606,-2.7536 -10.513,0 -2.7517,2.7518 -7.7579,2.7518 -10.51,0 l -63.069,-63.09 c -2.7517,-2.7528 -2.7517,-7.762 0,-10.515 2.7518,-2.7528 2.7518,-7.762 0,-10.515 l -52.554,-52.574 c -2.7519,-2.7536 -7.7606,-2.7536 -10.513,0 l -84.088,84.119 c -2.7517,2.7528 -2.7517,7.762 0,10.515 l 52.557,52.574 c 2.7517,2.7518 7.7578,2.7518 10.51,0 l 10.513,-10.515 c 2.7642,-2.6956 7.7147,-2.6638 10.444,0.0669 2.7294,2.7308 2.7604,7.6831 0.0654,10.448 l -42.044,42.059 c -2.766,2.6864 -7.7072,2.6497 -10.433,-0.0773 -2.7259,-2.7271 -2.7621,-7.6701 -0.0764,-10.437 l 10.51,-10.515 c 2.7519,-2.7528 2.7519,-7.7623 0,-10.515 l -52.557,-52.574 c -2.7517,-2.7518 -7.7578,-2.7518 -10.51,0 l -84.089,84.118 c -2.7526,2.7529 -2.7526,7.7634 0,10.516 l 52.555,52.572 c 2.7519,2.7536 7.7606,2.7536 10.513,0 2.7517,-2.7518 7.7579,-2.7518 10.51,0 l 63.069,63.092 c 2.7509,2.7527 2.7509,7.7606 0,10.513 -2.7526,2.7529 -2.7526,7.7634 0,10.516 l 52.554,52.572 c 2.7519,2.7536 7.7606,2.7536 10.513,0 l 84.088,-84.118 c 2.7508,-2.7527 2.7508,-7.7606 0,-10.513 l -52.57,-52.561 c -2.7517,-2.7518 -7.7578,-2.7518 -10.51,0 l -10.513,10.513 c -2.7682,2.6746 -7.6976,2.6318 -10.419,-0.0907 -2.7214,-2.7223 -2.7642,-7.6535 -0.0907,-10.423 l 42.044,-42.059 c 2.7682,-2.6746 7.6977,-2.6318 10.419,0.0907 2.7214,2.7223 2.7642,7.6535 0.0907,10.423 l -10.51,10.516 c -2.7508,2.7527 -2.7508,7.7606 0,10.513 l 52.557,52.575 c 2.7517,2.7518 7.7579,2.7518 10.51,0 l 84.09,-84.117 c 2.7526,-2.7529 2.7526,-7.7634 0,-10.516 z"
     style="fill:#ff7700"
     id="path94" />
  <g
     inkscape:groupmode="layer"
     id="layer1"
     inkscape:label="Construction"
     style="display:none"
     transform="translate(125.00382,174.0786)">
    <path
       style="fill:none;fill-opacity:0.94117647;stroke:#000000;stroke-width:1.4250387;stroke-miterlimit:4;stroke-dasharray:none;stroke-opacity:1"
       id="path3347-0"
       sodipodi:type="arc"
       sodipodi:cx="-324.99622"
       sodipodi:cy="275.92145"
       sodipodi:rx="424.28674"
       sodipodi:ry="424.28738"
       sodipodi:start="1.0914599"
       sodipodi:end="4.0405501"
       d="M -129.31921,652.39213 A 424.28674,424.28738 0 0 1 -680.91873,506.87289 424.28674,424.28738 0 0 1 -589.08344,-56.159133"
       transform="scale(-1,1)"
       sodipodi:open="true" />
    <path
       style="fill:none;fill-opacity:0.94117647;stroke:#000000;stroke-width:1.00578678;stroke-miterlimit:4;stroke-dasharray:none;stroke-opacity:1"
       id="path3347"
       sodipodi:type="arc"
       sodipodi:cx="324.99652"
       sodipodi:cy="275.92175"
       sodipodi:rx="299.4599"
       sodipodi:ry="299.46039"
       sodipodi:start="2.5366169"
       sodipodi:end="5.4241917"
       d="M 78.685996,446.23749 A 299.4599,299.46039 0 0 1 124.85332,53.168319 299.4599,299.46039 0 0 1 520.60368,49.174668"
       sodipodi:open="true" />
  </g>
  <g
     inkscape:groupmode="layer"
     id="layer2"
     inkscape:label="Text"
     style="display:inline"
     transform="translate(125.00382,174.0786)">
    <text
       xml:space="preserve"
       style="font-style:normal;font-variant:normal;font-weight:bold;font-stretch:normal;font-size:177.5px;line-height:125%;font-family:'Titillium Web';-inkscape-font-specification:'Titillium Web, Bold';text-align:start;letter-spacing:3px;word-spacing:0px;writing-mode:lr-tb;text-anchor:start;fill:#ff7700;fill-opacity:1;stroke:none;stroke-width:1px;stroke-linecap:butt;stroke-linejoin:miter;stroke-opacity:1;"
       id="text3357"
       sodipodi:linespacing="125%"><textPath
         xlink:href="#path3347"
         id="textPath3361"><tspan
   id="tspan3359"
   style="font-style:normal;font-variant:normal;font-weight:bold;font-stretch:normal;font-size:177.5px;line-height:125%;font-family:'Titillium Web';-inkscape-font-specification:'Titillium Web, Bold';text-align:start;letter-spacing:3px;writing-mode:lr-tb;text-anchor:start;fill:#ff7700;fill-opacity:1;">SWINDON</tspan></textPath></text>
    <text
       xml:space="preserve"
       style="font-style:normal;font-variant:normal;font-weight:bold;font-stretch:normal;font-size:177.5px;line-height:120.00000477%;font-family:'Titillium Web';-inkscape-font-specification:'Titillium Web, Bold';text-align:start;letter-spacing:22px;word-spacing:0px;writing-mode:lr-tb;text-anchor:start;fill:#ff7700;fill-opacity:1;stroke:none;stroke-width:1px;stroke-linecap:butt;stroke-linejoin:miter;stroke-opacity:1"
       id="text4181"
       sodipodi:linespacing="120%"><textPath
         xlink:href="#path3347-0"
         id="textPath4191"
         startOffset="0%"
         dy="0 0">HACKSPACE</textPath></text>
  </g>
</svg>
