<?xml version="1.0" encoding="UTF-8" standalone="no"?>
<svg
   xmlns:dsy="http://www.3ds.com/print"
   xmlns:dc="http://purl.org/dc/elements/1.1/"
   xmlns:cc="http://creativecommons.org/ns#"
   xmlns:rdf="http://www.w3.org/1999/02/22-rdf-syntax-ns#"
   xmlns:svg="http://www.w3.org/2000/svg"
   xmlns="http://www.w3.org/2000/svg"
   xmlns:sodipodi="http://sodipodi.sourceforge.net/DTD/sodipodi-0.dtd"
   xmlns:inkscape="http://www.inkscape.org/namespaces/inkscape"
   id="svg2"
   xlink="http://www.w3.org/1999/xlink"
   height="900"
   dsy:text-version="20000"
   width="900"
   version="1.1"
   viewBox="0 0 900 900"
   inkscape:version="0.91 r13725"
   sodipodi:docname="2D MASTER - WITH TEXT CONVERTED TO PATH.svg"
   inkscape:export-filename="D:\Documents\Stuff\REPRAP\Models\Swindon Hackspace Logo\IMAGE 2D - Text.png"
   inkscape:export-xdpi="60"
   inkscape:export-ydpi="60">
  <defs
     id="defs3345" />
  <sodipodi:namedview
     pagecolor="#ffffff"
     bordercolor="#666666"
     borderopacity="1"
     objecttolerance="10"
     gridtolerance="10"
     guidetolerance="10"
     inkscape:pageopacity="0"
     inkscape:pageshadow="2"
     inkscape:window-width="1440"
     inkscape:window-height="838"
     id="namedview3343"
     showgrid="false"
     inkscape:zoom="0.5525"
     inkscape:cx="530.26053"
     inkscape:cy="450.22341"
     inkscape:window-x="-8"
     inkscape:window-y="-8"
     inkscape:window-maximized="1"
     inkscape:current-layer="text3357"
     fit-margin-top="0"
     fit-margin-left="0"
     fit-margin-right="0"
     fit-margin-bottom="0" />
  <title
     id="title4024">Swindon Hackspace Logo</title>
  <metadata
     id="metadata68">
    <rdf:RDF>
      <cc:Work
         rdf:about="">
        <dc:format>image/svg+xml</dc:format>
        <dc:type
           rdf:resource="http://purl.org/dc/dcmitype/StillImage" />
        <dc:title>Swindon Hackspace Logo</dc:title>
        <cc:license
           rdf:resource="http://creativecommons.org/licenses/by-nc-sa/3.0/" />
        <dc:date>03/08/2013</dc:date>
        <dc:creator>
          <cc:Agent>
            <dc:title>Steve Wood</dc:title>
          </cc:Agent>
        </dc:creator>
        <dc:publisher>
          <cc:Agent>
            <dc:title>Steve Wood</dc:title>
          </cc:Agent>
        </dc:publisher>
        <dc:contributor>
          <cc:Agent>
            <dc:title>Members of the Swindon Hackspace</dc:title>
          </cc:Agent>
        </dc:contributor>
        <dc:rights>
          <cc:Agent>
            <dc:title>Swindon Hackspace</dc:title>
          </cc:Agent>
        </dc:rights>
        <dc:source>https://github.com/snhack/HackspaceLogo</dc:source>
      </cc:Work>
      <cc:License
         rdf:about="http://creativecommons.org/licenses/by-nc-sa/3.0/">
        <cc:permits
           rdf:resource="http://creativecommons.org/ns#Reproduction" />
        <cc:permits
           rdf:resource="http://creativecommons.org/ns#Distribution" />
        <cc:requires
           rdf:resource="http://creativecommons.org/ns#Notice" />
        <cc:requires
           rdf:resource="http://creativecommons.org/ns#Attribution" />
        <cc:prohibits
           rdf:resource="http://creativecommons.org/ns#CommercialUse" />
        <cc:permits
           rdf:resource="http://creativecommons.org/ns#DerivativeWorks" />
        <cc:requires
           rdf:resource="http://creativecommons.org/ns#ShareAlike" />
      </cc:License>
    </rdf:RDF>
  </metadata>
  <path
     inkscape:connector-curvature="0"
     d="m 322.25382,282.46584 3.7317,13.927 c 0.71695,2.6777 -0.22039,5.7275 -2.3174,7.5403 -7.0444,6.0922 -13.647,12.695 -19.74,19.739 -1.8128,2.0972 -4.8628,3.0345 -7.5406,2.3174 l -13.925,-3.7317 c -2.9034,-0.77828 -6.2312,0.41818 -7.9744,2.8671 -7.8927,11.094 -14.73,22.938 -20.39,35.32 -1.2503,2.7334 -0.62419,6.2136 1.5004,8.3398 l 10.197,10.194 c 1.9604,1.9602 2.6742,5.0703 1.7648,7.6891 -3.0546,8.7986 -5.4715,17.818 -7.2256,26.965 -0.52191,2.7221 -2.6945,5.0581 -5.3717,5.7758 l -13.928,3.7317 c -2.9029,0.77876 -5.1853,3.479 -5.4698,6.471 -1.2887,13.553 -1.2887,27.228 0,40.781 0.28446,2.992 2.5669,5.6922 5.4698,6.471 l 13.928,3.7317 c 2.6772,0.71762 4.8498,3.0537 5.3717,5.7758 2.6926,14.039 6.9502,27.778 12.669,40.879 1.148,2.6304 3.9368,4.4563 6.8067,4.4566 l 38.14,0 c 1.9437,-4.2e-4 3.8753,-0.8006 5.2499,-2.1748 l 225.91,-225.92 c 1.3752,-1.3751 3.3081,-2.1756 5.2529,-2.1754 l 122.76,0 c 2.5131,-5.2e-4 4.9842,1.373 6.3106,3.5076 15.724,25.304 27.294,53.183 34.108,82.185 6.8145,29.002 8.8708,59.116 6.0617,88.775 -2.809,29.659 -10.482,58.852 -22.62,86.059 -12.138,27.207 -28.736,52.418 -48.931,74.32 -20.195,21.903 -43.978,40.489 -70.112,54.791 -26.134,14.302 -54.609,24.315 -83.943,29.518 -29.334,5.2026 -59.516,5.5928 -88.975,1.1502 -29.459,-4.4425 -58.183,-13.716 -84.678,-27.338 -2.0708,-1.0653 -3.581,-3.1568 -3.9407,-5.4576 -0.35974,-2.3008 0.43997,-4.7534 2.0868,-6.4 l 50.529,-50.529 c 2.0153,-2.0156 5.2472,-2.704 7.909,-1.6846 10.6,4.0598 21.558,7.1827 32.706,9.3202 2.7221,0.52191 5.0582,2.6945 5.7758,5.3717 l 3.7317,13.928 c 0.77876,2.9028 3.479,5.1853 6.471,5.4697 13.553,1.2887 27.228,1.2887 40.781,0 2.992,-0.28446 5.6922,-2.5669 6.471,-5.4697 l 3.7317,-13.928 c 0.71762,-2.6772 3.0537,-4.8498 5.7758,-5.3717 9.147,-1.7541 18.167,-4.1711 26.965,-7.2256 2.6188,-0.90943 5.729,-0.19559 7.6891,1.7648 l 10.194,10.197 c 2.1262,2.1246 5.6064,2.7507 8.3398,1.5004 12.382,-5.6602 24.226,-12.498 35.32,-20.39 2.4489,-1.7431 3.6454,-5.0709 2.8671,-7.9743 l -3.7317,-13.925 c -0.71707,-2.6777 0.22028,-5.7277 2.3174,-7.5406 7.0444,-6.0925 13.647,-12.695 19.74,-19.74 1.8128,-2.0972 4.8628,-3.0345 7.5406,-2.3174 l 13.925,3.7317 c 2.9034,0.77828 6.2312,-0.41818 7.9744,-2.8671 7.8927,-11.094 14.73,-22.938 20.39,-35.32 1.2503,-2.7334 0.62419,-6.2136 -1.5004,-8.3398 l -10.2,-10.185 c -1.9604,-1.9602 -2.6742,-5.0703 -1.7648,-7.6891 3.0546,-8.7986 5.4715,-17.818 7.2256,-26.965 0.52191,-2.7221 2.6945,-5.0581 5.3717,-5.7758 l 13.928,-3.7317 c 2.9029,-0.77876 5.1853,-3.479 5.4698,-6.471 1.2887,-13.553 1.2887,-27.228 0,-40.781 -0.28447,-2.992 -2.5669,-5.6922 -5.4698,-6.471 l -13.928,-3.7317 c -2.6772,-0.71762 -4.8498,-3.0536 -5.3717,-5.7758 -2.6926,-14.039 -6.9502,-27.778 -12.669,-40.879 -1.148,-2.6304 -3.9368,-4.4563 -6.8067,-4.4566 l -38.14,0 c -1.9437,4.1e-4 -3.8753,0.80059 -5.2499,2.1748 l -225.91,225.92 c -1.3753,1.3749 -3.3082,2.1752 -5.2529,2.1748 l -122.76,0 c -2.5134,2.7e-4 -4.9845,-1.3738 -6.3106,-3.5088 -15.723,-25.304 -27.293,-53.183 -34.107,-82.185 -6.8142,-29.002 -8.8702,-59.116 -6.061,-88.775 2.8092,-29.659 10.483,-58.851 22.621,-86.058 12.138,-27.207 28.736,-52.417 48.931,-74.32 20.195,-21.902 43.978,-40.488 70.112,-54.791 26.134,-14.302 54.609,-24.315 83.943,-29.518 29.334,-5.2026 59.515,-5.5929 88.974,-1.1505 29.459,4.4424 58.183,13.716 84.678,27.337 2.0709,1.0653 3.5812,3.1568 3.9409,5.4577 0.35975,2.3009 -0.44004,4.7536 -2.087,6.4001 l -50.529,50.529 c -2.0154,2.0155 -5.2473,2.7038 -7.909,1.6843 -10.6,-4.0599 -21.558,-7.1829 -32.706,-9.3205 -2.7222,-0.522 -5.0583,-2.6949 -5.7758,-5.3723 l -3.7317,-13.927 c -0.77803,-2.9036 -3.4785,-5.1871 -6.471,-5.4718 -13.553,-1.2887 -27.228,-1.2887 -40.781,0 -2.9925,0.28475 -5.693,2.5682 -6.471,5.4718 l -3.7317,13.927 c -0.71743,2.6774 -3.0535,4.8503 -5.7758,5.3723 -9.147,1.7539 -18.167,4.1707 -26.965,7.225 -2.6188,0.9095 -5.7289,0.19578 -7.6891,-1.7645 l -10.194,-10.196 c -2.1256,-2.1255 -5.6059,-2.7527 -8.3398,-1.5031 -12.383,5.6605 -24.226,12.498 -35.32,20.391 -2.449,1.743 -3.6455,5.071 -2.8671,7.9745 z"
     style="fill:#ffbb00"
     id="path3364" />
  <path
     inkscape:connector-curvature="0"
     d="m 644.461,444.7442 -52.554,-52.574 c -2.7519,-2.7536 -7.7606,-2.7536 -10.513,0 -2.7517,2.7518 -7.7579,2.7518 -10.51,0 l -63.069,-63.09 c -2.7517,-2.7528 -2.7517,-7.762 0,-10.515 2.7518,-2.7528 2.7518,-7.762 0,-10.515 l -52.554,-52.574 c -2.7519,-2.7536 -7.7606,-2.7536 -10.513,0 l -84.088,84.119 c -2.7517,2.7528 -2.7517,7.762 0,10.515 l 52.557,52.574 c 2.7517,2.7518 7.7578,2.7518 10.51,0 l 10.513,-10.515 c 2.7642,-2.6956 7.7147,-2.6638 10.444,0.0669 2.7294,2.7308 2.7604,7.6831 0.0654,10.448 l -42.044,42.059 c -2.766,2.6864 -7.7072,2.6497 -10.433,-0.0773 -2.7259,-2.7271 -2.7621,-7.6701 -0.0764,-10.437 l 10.51,-10.515 c 2.7519,-2.7528 2.7519,-7.7623 0,-10.515 l -52.557,-52.574 c -2.7517,-2.7518 -7.7578,-2.7518 -10.51,0 l -84.089,84.118 c -2.7526,2.7529 -2.7526,7.7634 0,10.516 l 52.555,52.572 c 2.7519,2.7536 7.7606,2.7536 10.513,0 2.7517,-2.7518 7.7579,-2.7518 10.51,0 l 63.069,63.092 c 2.7509,2.7527 2.7509,7.7606 0,10.513 -2.7526,2.7529 -2.7526,7.7634 0,10.516 l 52.554,52.572 c 2.7519,2.7536 7.7606,2.7536 10.513,0 l 84.088,-84.118 c 2.7508,-2.7527 2.7508,-7.7606 0,-10.513 l -52.57,-52.561 c -2.7517,-2.7518 -7.7578,-2.7518 -10.51,0 l -10.513,10.513 c -2.7682,2.6746 -7.6976,2.6318 -10.419,-0.0907 -2.7214,-2.7223 -2.7642,-7.6535 -0.0907,-10.423 l 42.044,-42.059 c 2.7682,-2.6746 7.6977,-2.6318 10.419,0.0907 2.7214,2.7223 2.7642,7.6535 0.0907,10.423 l -10.51,10.516 c -2.7508,2.7527 -2.7508,7.7606 0,10.513 l 52.557,52.575 c 2.7517,2.7518 7.7579,2.7518 10.51,0 l 84.09,-84.117 c 2.7526,-2.7529 2.7526,-7.7634 0,-10.516 z"
     style="fill:#ff7700"
     id="path94" />
  <g
     inkscape:groupmode="layer"
     id="layer1"
     inkscape:label="Construction"
     style="display:none"
     transform="translate(125.00382,174.0786)">
    <path
       style="fill:none;fill-opacity:0.94117647;stroke:#000000;stroke-width:1.4250387;stroke-miterlimit:4;stroke-dasharray:none;stroke-opacity:1"
       id="path3347-0"
       sodipodi:type="arc"
       sodipodi:cx="-324.99622"
       sodipodi:cy="275.92145"
       sodipodi:rx="424.28674"
       sodipodi:ry="424.28738"
       sodipodi:start="1.0914599"
       sodipodi:end="4.0405501"
       d="M -129.31921,652.39213 A 424.28674,424.28738 0 0 1 -680.91873,506.87289 424.28674,424.28738 0 0 1 -589.08344,-56.159133"
       transform="scale(-1,1)"
       sodipodi:open="true" />
    <path
       style="fill:none;fill-opacity:0.94117647;stroke:#000000;stroke-width:1.00578678;stroke-miterlimit:4;stroke-dasharray:none;stroke-opacity:1"
       id="path3347"
       sodipodi:type="arc"
       sodipodi:cx="324.99652"
       sodipodi:cy="275.92175"
       sodipodi:rx="299.4599"
       sodipodi:ry="299.46039"
       sodipodi:start="2.5366169"
       sodipodi:end="5.4241917"
       d="M 78.685996,446.23749 A 299.4599,299.46039 0 0 1 124.85332,53.168319 299.4599,299.46039 0 0 1 520.60368,49.174668"
       sodipodi:open="true" />
  </g>
  <g
     inkscape:groupmode="layer"
     id="layer2"
     inkscape:label="Text"
     style="display:inline"
     transform="translate(125.00382,174.0786)">
    <g
       style="font-style:normal;font-variant:normal;font-weight:bold;font-stretch:normal;font-size:177.5px;line-height:125%;font-family:'Titillium Web';-inkscape-font-specification:'Titillium Web, Bold';text-align:start;letter-spacing:3px;word-spacing:0px;writing-mode:lr-tb;text-anchor:start;fill:#ff7700;fill-opacity:1;stroke:none;stroke-width:1px;stroke-linecap:butt;stroke-linejoin:miter;stroke-opacity:1"
       id="text3357">
      <path
         d="m -38.011124,446.35339 q 8.310744,17.47161 19.851627,11.98194 5.129281,-2.43985 5.795587,-8.06385 0.666306,-5.624 -1.752704,-23.93257 -2.495255,-18.46885 1.026822,-28.00651 3.3617866,-9.46142 16.8261494,-15.86603 17.1510336,-8.15825 30.9229336,-1.9329 13.771901,6.22536 21.777664,23.05582 5.947138,12.50262 10.715903,32.44528 l 1.622803,6.30416 -18.218469,5.91419 Q 43.225534,425.40164 37.812114,414.02105 29.730105,397.03031 15.624582,403.7399 q -5.129281,2.43985 -6.1083674,7.81952 -1.0553319,5.21937 1.1444884,18.5217 3.554891,21.10974 0.0016,32.2347 -3.7898096,11.04092 -16.7733023,17.21679 -16.3495837,7.77703 -29.0912977,1.65132 -12.741714,-6.12572 -20.976213,-23.43704 -5.642157,-11.86146 -11.128327,-31.65943 l -1.622803,-6.30416 18.310313,-6.54756 q 8.185955,23.82082 12.608186,33.11765 z"
         style="font-style:normal;font-variant:normal;font-weight:bold;font-stretch:normal;font-size:177.5px;line-height:125%;font-family:'Titillium Web';-inkscape-font-specification:'Titillium Web, Bold';text-align:start;letter-spacing:3px;writing-mode:lr-tb;text-anchor:start;fill:#ff7700;fill-opacity:1"
         id="path3372" />
      <path
         d="m -95.462573,353.56088 0.09555,-25.73732 99.8096639,-14.53957 0.00988,-2.66248 -99.6739211,-22.02518 0.105431,-28.39981 99.8347036,-21.28452 0.00988,-2.66248 -99.6989608,-15.28023 0.09555,-25.73732 120.613506,23.52292 -0.137719,37.09725 -91.837375,18.65169 91.69636,19.33305 -0.137719,37.09724 -120.784831,22.62676 z"
         style="font-style:normal;font-variant:normal;font-weight:bold;font-stretch:normal;font-size:177.5px;line-height:125%;font-family:'Titillium Web';-inkscape-font-specification:'Titillium Web, Bold';text-align:start;letter-spacing:3px;writing-mode:lr-tb;text-anchor:start;fill:#ff7700;fill-opacity:1"
         id="path3374" />
      <path
         d="m 41.715086,177.96284 -112.375078,-44.0492 8.939396,-22.80553 112.375078,44.0492 -8.939396,22.80553 z"
         style="font-style:normal;font-variant:normal;font-weight:bold;font-stretch:normal;font-size:177.5px;line-height:125%;font-family:'Titillium Web';-inkscape-font-specification:'Titillium Web, Bold';text-align:start;letter-spacing:3px;writing-mode:lr-tb;text-anchor:start;fill:#ff7700;fill-opacity:1"
         id="path3376" />
      <path
         d="M 60.875425,126.63035 -33.353078,51.201714 -7.5076778,18.914594 88.283878,58.306597 89.393123,56.920883 11.793179,-5.1968168 27.100755,-24.31966 121.32926,51.108976 96.149405,82.564667 -0.30769788,44.004093 -1.4169425,45.389806 76.183002,107.50751 60.875425,126.63035 Z"
         style="font-style:normal;font-variant:normal;font-weight:bold;font-stretch:normal;font-size:177.5px;line-height:125%;font-family:'Titillium Web';-inkscape-font-specification:'Titillium Web, Bold';text-align:start;letter-spacing:3px;writing-mode:lr-tb;text-anchor:start;fill:#ff7700;fill-opacity:1"
         id="path3378" />
      <path
         d="M 181.12921,13.217717 145.2962,32.406644 88.315983,-73.997041 124.14899,-93.185969 q 13.76989,-7.373911 24.28111,-9.177151 10.42744,-1.95971 18.88135,2.17113 8.5266,3.890567 15.26439,11.960642 6.654,7.913599 14.36309,22.309392 7.70909,14.395793 11.09931,24.862568 3.30643,10.310299 2.47781,20.418775 -0.75594,9.868206 -7.98807,18.1707561 -7.31593,8.1460739 -21.39877,15.6875739 z m 0.0645,-54.398717 q -2.36847,-5.174821 -7.06096,-13.937477 -4.77628,-8.919133 -8.2512,-13.904139 -3.47491,-4.985007 -8.1683,-8.109418 -4.69338,-3.124412 -10.2256,-2.175339 -5.45955,0.708803 -13.28335,4.898525 l -14.23931,7.625295 36.86955,68.8494433 14.23932,-7.6252944 q 11.7357,-6.2845829 13.87169,-15.0796829 1.94018,-7.280795 -3.75184,-20.541913 z"
         style="font-style:normal;font-variant:normal;font-weight:bold;font-stretch:normal;font-size:177.5px;line-height:125%;font-family:'Titillium Web';-inkscape-font-specification:'Titillium Web, Bold';text-align:start;letter-spacing:3px;writing-mode:lr-tb;text-anchor:start;fill:#ff7700;fill-opacity:1"
         id="path3380" />
      <path
         d="m 273.05428,-48.419236 q 6.20185,8.665192 20.51048,7.259591 14.30863,-1.4056 18.52911,-11.094625 4.37978,-9.883027 2.24535,-31.610941 -2.15179,-21.904569 -8.42305,-31.276359 -6.27127,-9.37179 -20.40324,-7.98354 -14.13198,1.38825 -18.4597,11.80122 -4.32772,10.41298 -2.17593,32.317544 2.13443,21.727915 8.17698,30.58711 z m 59.64483,9.836007 q -9.67127,15.93182 -37.05198,18.62155 -27.3807,2.689729 -40.14394,-11.038249 -12.60395,-13.92198 -15.72751,-45.718928 -3.12355,-31.796944 6.49566,-48.258714 9.77851,-16.65578 37.15922,-19.34551 27.3807,-2.68972 40.0367,11.7622 12.8153,14.25793 15.93886,46.05488 3.12356,31.796948 -6.70701,47.922771 z"
         style="font-style:normal;font-variant:normal;font-weight:bold;font-stretch:normal;font-size:177.5px;line-height:125%;font-family:'Titillium Web';-inkscape-font-specification:'Titillium Web, Bold';text-align:start;letter-spacing:3px;writing-mode:lr-tb;text-anchor:start;fill:#ff7700;fill-opacity:1"
         id="path3382" />
      <path
         d="m 370.63071,-24.003914 36.93291,-114.910616 39.37378,12.65495 -2.70159,103.539621 1.68986,0.543131 30.41533,-94.632272 23.3201,7.4952 L 462.72819,5.5967236 424.36832,-6.7323492 426.056,-110.59785 l -1.68986,-0.54313 -30.41533,94.632274 -23.3201,-7.495208 z"
         style="font-style:normal;font-variant:normal;font-weight:bold;font-stretch:normal;font-size:177.5px;line-height:125%;font-family:'Titillium Web';-inkscape-font-specification:'Titillium Web, Bold';text-align:start;letter-spacing:3px;writing-mode:lr-tb;text-anchor:start;fill:#ff7700;fill-opacity:1"
         id="path3384" />
    </g>
    <g
       style="font-style:normal;font-variant:normal;font-weight:bold;font-stretch:normal;font-size:177.5px;line-height:120.00000477%;font-family:'Titillium Web';-inkscape-font-specification:'Titillium Web, Bold';text-align:start;letter-spacing:22px;word-spacing:0px;writing-mode:lr-tb;text-anchor:start;fill:#ff7700;fill-opacity:1;stroke:none;stroke-width:1px;stroke-linecap:butt;stroke-linejoin:miter;stroke-opacity:1"
       id="text4181">
      <path
         d="m 205.57875,683.72894 16.6089,-47.21915 -42.36327,-14.90089 -16.6089,47.21914 -23.10724,-8.12776 40.04983,-113.86176 23.10724,8.12776 -16.37331,46.54937 42.36327,14.90089 16.37331,-46.54937 23.10724,8.12776 -40.04983,113.86177 -23.10724,-8.12776 z"
         style=""
         id="path3353" />
      <path
         d="m 266.92091,699.20502 29.52774,-120.14214 46.49599,0.91527 24.77674,121.21111 -24.49026,-0.48209 -4.36188,-21.92259 -42.23682,-0.83143 -5.22126,21.73395 -24.49025,-0.48208 z m 48.11831,-99.53726 -13.37349,57.08035 33.00861,0.64977 -11.11677,-57.56244 -8.51835,-0.16768 z"
         style=""
         id="path3355" />
      <path
         d="m 477.19002,672.05721 q -17.05397,8.93494 -31.59916,12.94373 -14.54518,4.00878 -24.26269,2.82053 -9.71752,-1.18825 -16.84945,-7.69205 -7.13193,-6.50381 -11.9383,-16.59446 -4.80637,-10.09064 -9.23961,-26.1759 -9.29094,-33.7106 -3.51084,-49.48074 5.90406,-15.98842 31.40091,-23.01558 14.71631,-4.05595 35.32622,-4.76503 l 4.50336,19.01182 q -17.6483,2.10226 -28.9422,5.21496 -11.12279,3.06554 -15.06522,7.46623 -3.9896,4.22958 -4.07433,13.27472 0.0864,8.99798 5.65151,29.19011 5.56514,20.19214 12.35483,26.79027 6.91365,6.37985 20.94547,2.51256 14.20294,-3.91446 29.45682,-10.69622 l 5.84268,19.19505 z"
         style=""
         id="path3357" />
      <path
         d="m 537.11731,643.75088 -20.77816,12.97201 -63.92004,-102.38515 20.77816,-12.97201 28.10602,45.01936 12.9121,-10.15367 -10.30258,-54.0417 23.63892,-14.75801 9.7702,65.25515 54.75211,36.754 -23.94005,14.94601 -42.63859,-30.08749 -12.91211,10.15367 24.53402,39.29783 z"
         style=""
         id="path3359" />
      <path
         d="m 568.3902,487.96156 q -12.77901,14.52662 -3.18345,22.9678 4.26469,3.75164 9.69575,2.14636 5.43107,-1.60528 21.30239,-11.04753 15.98856,-9.57553 26.14225,-10.09962 10.02041,-0.64132 21.21523,9.20673 14.26007,12.54454 13.9695,27.65533 -0.29057,15.11079 -12.60063,29.10431 -9.14462,10.39519 -25.59111,22.64117 l -5.1535,3.97711 -12.61872,-14.41035 q 18.10887,-15.74811 26.43282,-25.2104 12.4273,-14.12679 0.69939,-24.4438 -4.26469,-3.75164 -9.59455,-2.53014 -5.21262,1.08822 -16.56975,8.35504 -17.99765,11.59064 -29.62234,12.71194 -11.64071,0.87079 -22.43572,-8.62554 -13.59371,-11.95835 -12.98849,-26.08313 0.60521,-14.12478 13.26699,-28.51812 8.67566,-9.8621 24.70631,-22.7103 l 5.15349,-3.97711 13.23699,14.24501 q -18.663,16.91548 -25.46285,24.64524 z"
         style=""
         id="path3361" />
      <path
         d="m 680.5208,434.40105 -8.42856,18.00483 31.82996,14.90049 -10.38519,22.18452 -109.31502,-51.17341 18.81375,-40.18934 q 18.21171,-38.90329 56.15046,-21.1431 19.13012,8.95534 24.75279,23.73862 5.53716,14.54726 -3.41819,33.67739 z m -27.39793,9.12474 8.3533,-17.84407 q 7.75127,-16.55801 -12.82567,-26.19065 -10.12772,-4.74107 -16.34954,-2.75402 -6.38259,1.9118 -10.3711,10.43194 l -8.35331,17.84407 39.54632,18.51273 z"
         style=""
         id="path3363" />
      <path
         d="m 738.0694,385.07566 -115.65318,-43.93589 6.56954,-46.03863 123.32601,-9.83444 -3.4603,24.24936 -22.29057,1.66027 -5.96775,41.82135 20.93654,7.82862 -3.46029,24.24936 z m -92.93812,-59.87942 55.02741,20.22377 4.66387,-32.68392 -58.4877,4.02559 -1.20358,8.43456 z"
         style=""
         id="path3365" />
      <path
         d="m 736.70396,173.06755 q 6.79515,18.0138 9.00571,32.93848 2.21056,14.92468 -0.15037,24.42562 -2.36094,9.50095 -9.68363,15.78921 -7.32269,6.28825 -17.92286,9.83209 -10.60016,3.54384 -27.1051,5.98846 -34.59014,5.12331 -49.54051,-2.53133 -15.15196,-7.80421 -19.02695,-33.9663 -2.23657,-15.10026 -0.43454,-35.64349 l 19.41832,-2.15839 q -0.0591,17.77297 1.65733,29.36154 1.69043,11.41299 5.57913,15.86124 3.71313,4.47425 12.68086,5.65811 8.94172,1.00827 29.66069,-2.06051 20.71897,-3.06878 28.09367,-9.00587 7.17312,-6.08666 5.04058,-20.48459 -2.15855,-14.57351 -7.03535,-30.53877 l 19.76302,-3.4655 z"
         style=""
         id="path3367" />
      <path
         d="m 725.96189,132.47468 -109.82009,50.08031 -32.40491,-71.06005 19.38001,-8.83771 22.24156,48.77304 25.67852,-11.70995 -17.8227,-39.08303 19.05701,-8.690412 17.8227,39.083032 26.32452,-12.00455 -22.24155,-48.773036 19.38002,-8.837702 32.40491,71.060058 z"
         style=""
         id="path3369" />
    </g>
  </g>
</svg>
