  0
SECTION
  2
HEADER
  9
$ACADVER
  1
AC1015
  9
$ACADMAINTVER
 70
     6
  9
$DWGCODEPAGE
  3
ANSI_1252
  9
$INSBASE
 10
0.0
 20
0.0
 30
0.0
  9
$EXTMIN
 10
0.0
 20
0.0
 30
0.0
  9
$EXTMAX
 10
302.5
 20
241.0
 30
2.0
  9
$LIMMIN
 10
0.0
 20
0.0
  9
$LIMMAX
 10
420.0
 20
297.0
  9
$ORTHOMODE
 70
     0
  9
$REGENMODE
 70
     1
  9
$FILLMODE
 70
     1
  9
$QTEXTMODE
 70
     0
  9
$MIRRTEXT
 70
     1
  9
$LTSCALE
 40
1.0
  9
$ATTMODE
 70
     1
  9
$TEXTSIZE
 40
2.5
  9
$TRACEWID
 40
1.0
  9
$TEXTSTYLE
  7
Standard
  9
$CLAYER
  8
0
  9
$CELTYPE
  6
ByLayer
  9
$CECOLOR
 62
   256
  9
$CELTSCALE
 40
1.0
  9
$DISPSILH
 70
     0
  9
$DIMSCALE
 40
1.0
  9
$DIMASZ
 40
2.5
  9
$DIMEXO
 40
0.625
  9
$DIMDLI
 40
3.75
  9
$DIMRND
 40
0.0
  9
$DIMDLE
 40
0.0
  9
$DIMEXE
 40
1.25
  9
$DIMTP
 40
0.0
  9
$DIMTM
 40
0.0
  9
$DIMTXT
 40
2.5
  9
$DIMCEN
 40
2.5
  9
$DIMTSZ
 40
0.0
  9
$DIMTOL
 70
     0
  9
$DIMLIM
 70
     0
  9
$DIMTIH
 70
     0
  9
$DIMTOH
 70
     0
  9
$DIMSE1
 70
     0
  9
$DIMSE2
 70
     0
  9
$DIMTAD
 70
     1
  9
$DIMZIN
 70
     8
  9
$DIMBLK
  1

  9
$DIMASO
 70
     1
  9
$DIMSHO
 70
     1
  9
$DIMPOST
  1

  9
$DIMAPOST
  1

  9
$DIMALT
 70
     0
  9
$DIMALTD
 70
     3
  9
$DIMALTF
 40
0.03937
  9
$DIMLFAC
 40
1.0
  9
$DIMTOFL
 70
     1
  9
$DIMTVP
 40
0.0
  9
$DIMTIX
 70
     0
  9
$DIMSOXD
 70
     0
  9
$DIMSAH
 70
     0
  9
$DIMBLK1
  1

  9
$DIMBLK2
  1

  9
$DIMSTYLE
  2

  9
$DIMCLRD
 70
     0
  9
$DIMCLRE
 70
     0
  9
$DIMCLRT
 70
     0
  9
$DIMTFAC
 40
1.0
  9
$DIMGAP
 40
0.625
  9
$DIMJUST
 70
     0
  9
$DIMSD1
 70
     0
  9
$DIMSD2
 70
     0
  9
$DIMTOLJ
 70
     0
  9
$DIMTZIN
 70
     8
  9
$DIMALTZ
 70
     0
  9
$DIMALTTZ
 70
     0
  9
$DIMUPT
 70
     0
  9
$DIMDEC
 70
     2
  9
$DIMTDEC
 70
     2
  9
$DIMALTU
 70
     2
  9
$DIMALTTD
 70
     3
  9
$DIMTXSTY
  7
Standard
  9
$DIMAUNIT
 70
     0
  9
$DIMADEC
 70
     0
  9
$DIMALTRND
 40
0.0
  9
$DIMAZIN
 70
     0
  9
$DIMDSEP
 70
    44
  9
$DIMATFIT
 70
     0
  9
$DIMFRAC
 70
     0
  9
$DIMLDRBLK
  1

  9
$DIMLUNIT
 70
     2
  9
$DIMLWD
 70
    -2
  9
$DIMLWE
 70
    -2
  9
$DIMTMOVE
 70
     0
  9
$LUNITS
 70
     2
  9
$LUPREC
 70
     4
  9
$SKETCHINC
 40
1.0
  9
$FILLETRAD
 40
2.5
  9
$AUNITS
 70
     0
  9
$AUPREC
 70
     0
  9
$MENU
  1
.
  9
$ELEVATION
 40
0.0
  9
$PELEVATION
 40
0.0
  9
$THICKNESS
 40
0.0
  9
$LIMCHECK
 70
     0
  9
$CHAMFERA
 40
2.5
  9
$CHAMFERB
 40
2.5
  9
$CHAMFERC
 40
0.0
  9
$CHAMFERD
 40
0.0
  9
$SKPOLY
 70
     0
  9
$TDCREATE
 40
0.000000000
  9
$TDUCREATE
 40
0.000000000
  9
$TDUPDATE
 40
0.000000000
  9
$TDUUPDATE
 40
0.000000000
  9
$TDINDWG
 40
0.0000000000
  9
$TDUSRTIMER
 40
0.0000000000
  9
$USRTIMER
 70
     1
  9
$ANGBASE
 50
0.0
  9
$ANGDIR
 70
     0
  9
$PDMODE
 70
     0
  9
$PDSIZE
 40
0.0
  9
$PLINEWID
 40
0.0
  9
$SPLFRAME
 70
     0
  9
$SPLINETYPE
 70
     6
  9
$SPLINESEGS
 70
     8
  9
$HANDSEED
  5
AB
  9
$SURFTAB1
 70
     6
  9
$SURFTAB2
 70
     6
  9
$SURFTYPE
 70
     6
  9
$SURFU
 70
     6
  9
$SURFV
 70
     6
  9
$UCSBASE
  2

  9
$UCSNAME
  2

  9
$UCSORG
 10
0.0
 20
0.0
 30
0.0
  9
$UCSXDIR
 10
1.0
 20
0.0
 30
0.0
  9
$UCSYDIR
 10
0.0
 20
1.0
 30
0.0
  9
$UCSORTHOREF
  2

  9
$UCSORTHOVIEW
 70
     1
  9
$UCSORGTOP
 10
0.0
 20
0.0
 30
0.0
  9
$UCSORGBOTTOM
 10
0.0
 20
0.0
 30
0.0
  9
$UCSORGLEFT
 10
0.0
 20
0.0
 30
0.0
  9
$UCSORGRIGHT
 10
0.0
 20
0.0
 30
0.0
  9
$UCSORGFRONT
 10
0.0
 20
0.0
 30
0.0
  9
$UCSORGBACK
 10
0.0
 20
0.0
 30
0.0
  9
$PUCSBASE
  2

  9
$PUCSNAME
  2

  9
$PUCSORG
 10
0.0
 20
0.0
 30
0.0
  9
$PUCSXDIR
 10
1.0
 20
0.0
 30
0.0
  9
$PUCSYDIR
 10
0.0
 20
1.0
 30
0.0
  9
$PUCSORTHOREF
  2

  9
$PUCSORTHOVIEW
 70
     0
  9
$PUCSORGTOP
 10
0.0
 20
0.0
 30
0.0
  9
$PUCSORGBOTTOM
 10
0.0
 20
0.0
 30
0.0
  9
$PUCSORGLEFT
 10
0.0
 20
0.0
 30
0.0
  9
$PUCSORGRIGHT
 10
0.0
 20
0.0
 30
0.0
  9
$PUCSORGFRONT
 10
0.0
 20
0.0
 30
0.0
  9
$PUCSORGBACK
 10
0.0
 20
0.0
 30
0.0
  9
$USERI1
 70
     0
  9
$USERI2
 70
     0
  9
$USERI3
 70
     0
  9
$USERI4
 70
     0
  9
$USERI5
 70
     0
  9
$USERR1
 40
0.0
  9
$USERR2
 40
0.0
  9
$USERR3
 40
0.0
  9
$USERR4
 40
0.0
  9
$USERR5
 40
0.0
  9
$WORLDVIEW
 70
     1
  9
$SHADEDGE
 70
     3
  9
$SHADEDIF
 70
    70
  9
$TILEMODE
 70
     1
  9
$MAXACTVP
 70
    48
  9
$PINSBASE
 10
0.0
 20
0.0
 30
0.0
  9
$PLIMCHECK
 70
     0
  9
$PEXTMIN
 10
0.0
 20
0.0
 30
0.0
  9
$PEXTMAX
 10
302.5
 20
241.0
 30
2.0
  9
$PLIMMIN
 10
0.0
 20
0.0
  9
$PLIMMAX
 10
420.0
 20
297.0
  9
$UNITMODE
 70
     0
  9
$VISRETAIN
 70
     0
  9
$PLINEGEN
 70
     0
  9
$PSLTSCALE
 70
     1
  9
$TREEDEPTH
 70
  3020
  9
$CMLSTYLE
  2
Standard
  9
$CMLJUST
 70
     0
  9
$CMLSCALE
 40
20.0
  9
$PROXYGRAPHICS
 70
     1
  9
$MEASUREMENT
 70
     1
  9
$CELWEIGHT
370
    -1
  9
$ENDCAPS
280
     0
  9
$JOINSTYLE
280
     0
  9
$LWDISPLAY
290
     0
  9
$INSUNITS
 70
     0
  9
$HYPERLINKBASE
  1

  9
$STYLESHEET
  1

  9
$XEDIT
290
     1
  9
$CEPSNTYPE
380
     0
  9
$PSTYLEMODE
290
     0
  9
$FINGERPRINTGUID
  2

  9
$VERSIONGUID
  2

  9
$EXTNAMES
290
     0
  9
$PSVPSCALE
 40
0.0
  0
ENDSEC
  0
SECTION
  2
CLASSES
  0
CLASS
  1
LWPOLYLINE
  2
AcDbPolyline
  3
AutoCAD 2000
 90
        0
280
     0
281
     1
  0
CLASS
  1
IMAGE
  2
AcDbRasterImage
  3
ISM
 90
      127
280
     0
281
     1
  0
CLASS
  1
OLE2FRAME
  2
AcDbOle2Frame
  3
AutoCAD 2000
 90
        0
280
     0
281
     1
  0
CLASS
  1
HATCH
  2
AcDbHatch
  3
AutoCAD 2000
 90
        0
280
     0
281
     1
  0
CLASS
  1
DICTIONARYVAR
  2
AcDbDictionaryVar
  3
AutoCAD 2000
 90
        0
280
     0
281
     0
  0
CLASS
  1
RASTERVARIABLES
  2
AcDbRasterVariables
  3
ISM
 90
        0
280
     0
281
     0
  0
CLASS
  1
IMAGEDEF
  2
AcDbRasterImageDef
  3
ISM
 90
        0
280
     0
281
     0
  0
CLASS
  1
IMAGEDEF_REACTOR
  2
AcDbRasterImageDefReactor
  3
ISM
 90
        1
280
     0
281
     0
  0
CLASS
  1
IDBUFFER
  2
AcDbIdBuffer
  3
AutoCAD 2000
 90
        0
280
     0
281
     0
  0
CLASS
  1
SPATIAL_FILTER
  2
AcDbSpatialFilter
  3
AutoCAD 2000
 90
        0
280
     0
281
     0
  0
CLASS
  1
XRECORD
  2
AcDbXrecord
  3
AutoCAD 2000
 90
        0
280
     0
281
     0
  0
CLASS
  1
SORTENTSTABLE
  2
AcDbSortentsTable
  3
AutoCAD 2000
 90
        0
280
     0
281
     0
  0
CLASS
  1
LAYER_INDEX
  2
AcDbLayerIndex
  3
AutoCAD 2000
 90
        0
280
     0
281
     0
  0
CLASS
  1
SPATIAL_INDEX
  2
AcDbSpatialIndex
  3
AutoCAD 2000
 90
        0
280
     0
281
     0
  0
CLASS
  1
OBJECT_PTR
  2
CAseDLPNTableRecord
  3
"ASE-LPNTableRecord"
 90
        1
280
     0
281
     0
  0
CLASS
  1
LAYOUT
  2
AcDbLayout
  3
AutoCAD 2000
 90
        0
280
     0
281
     0
  0
CLASS
  1
PLOTSETTINGS
  2
AcDbPlotSettings
  3
AutoCAD 2000
 90
        0
280
     0
281
     0
  0
CLASS
  1
ACDBDICTIONARYWDFLT
  2
AcDbDictionaryWithDefault
  3
AutoCAD 2000
 90
        0
280
     0
281
     0
  0
CLASS
  1
ACDBPLACEHOLDER
  2
AcDbPlaceHolder
  3
AutoCAD 2000
 90
        0
280
     0
281
     0
  0
CLASS
  1
VBA_PROJECT
  2
AcDbVbaProject
  3
acadvba
 90
        0
280
     0
281
     0
  0
CLASS
  1
WIPEOUT
  2
AcDbWipeout
  3
WipeOut|AutoCAD Express Tool|expresstools@autodesk.com
 90
      127
280
     0
281
     1
  0
CLASS
  1
WIPEOUTVARIABLES
  2
AcDbWipeoutVariables
  3
WipeOut|AutoCAD Express Tool|expresstools@autodesk.com
 90
        0
280
     0
281
     0
  0
CLASS
  1
RTEXT
  2
RText
  3
RText|AutoCAD Express Tool|expresstools@autodesk.com
 90
        0
280
     0
281
     1
  0
CLASS
  1
ARCALIGNEDTEXT
  2
AcDbArcAlignedText
  3
ATEXT|AutoCAD Express Tool|expresstools@autodesk.com
 90
        0
280
     0
281
     1
  0
ENDSEC
  0
SECTION
  2
TABLES
  0
TABLE
  2
VPORT
  5
7
100
AcDbSymbolTable
 70
     1
  0
VPORT
  5
15
100
AcDbSymbolTableRecord
100
AcDbViewportTableRecord
  2
*ACTIVE
 70
     0
 10
0.0
 20
0.0
 11
1.0
 21
1.0
 12
6.591288
 22
4.579184
 13
0.0
 23
0.0
 14
1.0
 24
1.0
 15
0.0
 25
0.0
 16
0.0
 26
0.0
 36
1.0
 17
0.0
 27
0.0
 37
0.0
 40
9.158369
 41
0.688564
 42
50.0
 43
0.0
 44
0.0
 50
0.0
 51
0.0
 71
     0
 72
   100
 73
     1
 74
     1
 75
     0
 76
     0
 77
     0
 78
     0
281
     0
 65
     0
110
0.0
120
0.0
130
0.0
111
1.0
121
0.0
131
0.0
112
0.0
122
1.0
132
0.0
345
0
346
0
 79
     0
146
0.0
  0
ENDTAB
  0
TABLE
  2
LTYPE
  5
4
100
AcDbSymbolTable
 70
     3
  0
LTYPE
  5
11
100
AcDbSymbolTableRecord
100
AcDbLinetypeTableRecord
  2
ByBlock
 70
    64
  3

 72
    65
 73
     0
 40
0.0
  0
LTYPE
  5
12
100
AcDbSymbolTableRecord
100
AcDbLinetypeTableRecord
  2
ByLayer
 70
    64
  3

 72
    65
 73
     0
 40
0.0
  0
LTYPE
  5
13
100
AcDbSymbolTableRecord
100
AcDbLinetypeTableRecord
  2
Continuous
 70
    64
  3
Solid line
 72
    65
 73
     0
 40
0.0
  0
ENDTAB
  0
TABLE
  2
LAYER
  5
2
100
AcDbSymbolTable
 70
     1
  0
LAYER
  5
14
100
AcDbSymbolTableRecord
100
AcDbLayerTableRecord
  2
0
 70
     0
 62
     7
  6
Continuous
290
     1
370
    -3
390
1D
  0
ENDTAB
  0
TABLE
  2
STYLE
  5
3
100
AcDbSymbolTable
 70
     1
  0
STYLE
  5
17
100
AcDbSymbolTableRecord
100
AcDbTextStyleTableRecord
  2
Standard
 70
     0
 40
0.0
 41
1.0
 50
0.0
 71
     0
 42
0.0
  3
txt
  4

  0
ENDTAB
  0
TABLE
  2
VIEW
  5
5
100
AcDbSymbolTable
 70
     0
  0
ENDTAB
  0
TABLE
  2
UCS
  5
6
100
AcDbSymbolTable
 70
     0
  0
ENDTAB
  0
TABLE
  2
APPID
  5
8
100
AcDbSymbolTable
 70
     1
  0
APPID
  5
16
100
AcDbSymbolTableRecord
100
AcDbRegAppTableRecord
  2
ACAD
 70
     0
  0
ENDTAB
  0
TABLE
  2
DIMSTYLE
  5
9
100
AcDbSymbolTable
 70
     1
100
AcDbDimStyleTable
 71
     0
  0
DIMSTYLE
105
18
100
AcDbSymbolTableRecord
100
AcDbDimStyleTableRecord
  2
Standard
 70
     0
  3

  4

 40
1.0
 41
0.18
 42
0.0625
 43
0.38
 44
0.18
 45
0.0
 46
0.0
 47
0.0
 48
0.0
 71
     0
 72
     0
 73
     1
 74
     1
 75
     0
 76
     0
 77
     0
 78
     0
 79
     0
140
0.18
141
0.09
142
0.0
143
25.4
144
1.0
145
0.0
146
1.0
147
0.09
148
0.0
170
     0
171
     2
172
     0
173
     0
174
     0
175
     0
176
     0
177
     0
178
     0
179
     0
271
     4
272
     4
273
     2
274
     2
275
     0
276
     0
277
     2
278
    46
279
     0
280
     0
281
     0
282
     0
283
     1
284
     0
285
     0
286
     0
288
     0
289
     3
340
17
341
0
342
0
343
0
344
0
371
    -2
372
    -2
  0
ENDTAB
  0
TABLE
  2
BLOCK_RECORD
  5
1
100
AcDbSymbolTable
 70
     0
  0
BLOCK_RECORD
  5
A
100
AcDbSymbolTableRecord
100
AcDbBlockTableRecord
  2
*MODEL_SPACE
340
20
  0
BLOCK_RECORD
  5
B
100
AcDbSymbolTableRecord
100
AcDbBlockTableRecord
  2
*PAPER_SPACE
340
21
  0
ENDTAB
  0
ENDSEC
  0
SECTION
  2
BLOCKS
  0
BLOCK
  5
D
100
AcDbEntity
  8
0
390
0
100
AcDbBlockBegin
  2
*MODEL_SPACE
 70
     0
 10
0.0
 20
0.0
 30
0.0
  3
*MODEL_SPACE
  1

  0
ENDBLK
  5
E
100
AcDbEntity
  8
0
390
0
100
AcDbBlockEnd
  0
BLOCK
  5
F
100
AcDbEntity
 67
     1
  8
0
390
0
100
AcDbBlockBegin
  2
*PAPER_SPACE
 70
     0
 10
0.0
 20
0.0
 30
0.0
  3
*PAPER_SPACE
  1

  0
ENDBLK
  5
10
100
AcDbEntity
 67
     1
  8
0
390
0
100
AcDbBlockEnd
  0
ENDSEC
  0
SECTION
  2
ENTITIES
  0
VIEWPORT
  5
AA
100
AcDbEntity
 67
     1
  8
0
370
     0
390
0
 62
     0
 48
0.0
100
AcDbViewport
 10
0.0
 20
0.0
 30
0.0
 40
1000.0
 41
1000.0
 68
     1
 69
     1
 12
0.0
 22
0.0
 13
0.0
 23
0.0
 14
1.0
 24
1.0
 15
1.0
 25
1.0
 16
0.0
 26
0.0
 36
1.0
 17
0.0
 27
0.0
 37
0.0
 42
50.0
 43
0.0
 44
0.0
 45
1000.0
 50
0.0
 51
0.0
 72
   100
 90
        0
340
0
  1

281
     0
 71
     0
 74
     1
110
0.0
120
0.0
130
0.0
111
1.0
121
0.0
131
0.0
112
0.0
122
1.0
132
0.0
345
0
346
0
 79
     0
146
0.0
  0
LINE
  5
24
100
AcDbEntity
  8
0
370
    35
390
0
 62
    40
 48
0.398128
100
AcDbLine
 10
232.097092
 20
186.506989
 30
0.0
 11
243.357864
 21
197.767761
 31
0.0
210
0.0
220
0.0
230
1.0
  0
ARC
  5
25
100
AcDbEntity
  8
0
370
    35
390
0
 62
    40
100
AcDbCircle
 10
245.125626
 20
196.0
 30
0.0
 40
2.5
210
0.0
220
0.0
230
1.0
100
AcDbArc
 50
90.000003
 51
135.0
  0
LINE
  5
26
100
AcDbEntity
  8
0
370
    35
390
0
 62
    40
100
AcDbLine
 10
245.125626
 20
198.5
 30
0.0
 11
286.444427
 21
198.5
 31
0.0
210
0.0
220
0.0
230
1.0
  0
LINE
  5
27
100
AcDbEntity
  8
0
370
    35
390
0
 62
    40
 48
0.165133
100
AcDbLine
 10
248.006989
 20
170.597092
 30
0.0
 11
252.677673
 21
175.267761
 31
0.0
210
0.0
220
0.0
230
1.0
  0
ARC
  5
28
100
AcDbEntity
  8
0
370
    35
390
0
 62
    40
100
AcDbCircle
 10
286.444427
 20
196.0
 30
0.0
 40
2.5
210
0.0
220
0.0
230
1.0
100
AcDbArc
 50
31.855432
 51
90.000003
  0
ARC
  5
29
100
AcDbEntity
  8
0
370
    35
390
0
 62
    40
100
AcDbCircle
 10
254.445435
 20
173.5
 30
0.0
 40
2.5
210
0.0
220
0.0
230
1.0
100
AcDbArc
 50
90.000003
 51
135.0
  0
LINE
  5
2A
100
AcDbEntity
  8
0
370
    35
390
0
 62
    40
 48
0.252453
100
AcDbLine
 10
254.445435
 20
176.0
 30
0.0
 11
264.543549
 21
176.0
 31
0.0
210
0.0
220
0.0
230
1.0
  0
ARC
  5
2B
100
AcDbEntity
  8
0
370
    35
390
0
 62
    40
100
AcDbCircle
 10
264.543549
 20
173.5
 30
0.0
 40
2.5
210
0.0
220
0.0
230
1.0
100
AcDbArc
 50
24.624318
 51
90.000003
  0
ARC
  5
2C
100
AcDbEntity
  8
0
370
    35
390
0
 62
    40
100
AcDbCircle
 10
210.0
 20
148.5
 30
0.0
 40
62.5
210
0.0
220
0.0
230
1.0
100
AcDbArc
 50
10.693014
 51
24.624318
  0
LINE
  5
2D
100
AcDbEntity
  8
0
370
    35
390
0
 62
    40
 48
0.120535
100
AcDbLine
 10
273.224243
 20
158.145721
 30
0.0
 11
277.881348
 21
156.897858
 31
0.0
210
0.0
220
0.0
230
1.0
  0
ARC
  5
2E
100
AcDbEntity
  8
0
370
    35
390
0
 62
    40
100
AcDbCircle
 10
277.234314
 20
154.483047
 30
0.0
 40
2.5
210
0.0
220
0.0
230
1.0
100
AcDbArc
 50
5.085239
 51
74.999999
  0
ARC
  5
2F
100
AcDbEntity
  8
0
370
    35
390
0
 62
    40
100
AcDbCircle
 10
210.0
 20
148.5
 30
0.0
 40
70.0
210
0.0
220
0.0
230
1.0
100
AcDbArc
 50
354.914761
 51
5.085239
  0
ARC
  5
30
100
AcDbEntity
  8
0
370
    35
390
0
 62
    40
100
AcDbCircle
 10
277.234314
 20
142.516953
 30
0.0
 40
2.5
210
0.0
220
0.0
230
1.0
100
AcDbArc
 50
285.000001
 51
354.914761
  0
LINE
  5
31
100
AcDbEntity
  8
0
370
    35
390
0
 62
    40
 48
0.120535
100
AcDbLine
 10
273.224243
 20
138.854279
 30
0.0
 11
277.881348
 21
140.102142
 31
0.0
210
0.0
220
0.0
230
1.0
  0
ARC
  5
32
100
AcDbEntity
  8
0
370
    35
390
0
 62
    40
100
AcDbCircle
 10
210.0
 20
148.5
 30
0.0
 40
62.5
210
0.0
220
0.0
230
1.0
100
AcDbArc
 50
340.693014
 51
349.306986
  0
LINE
  5
33
100
AcDbEntity
  8
0
370
    35
390
0
 62
    40
 48
0.120535
100
AcDbLine
 10
269.57666
 20
125.241318
 30
0.0
 11
272.985901
 21
121.832077
 31
0.0
210
0.0
220
0.0
230
1.0
  0
ARC
  5
34
100
AcDbEntity
  8
0
370
    35
390
0
 62
    40
100
AcDbCircle
 10
271.21814
 20
120.064308
 30
0.0
 40
2.5
210
0.0
220
0.0
230
1.0
100
AcDbArc
 50
335.085239
 51
45.000001
  0
ARC
  5
35
100
AcDbEntity
  8
0
370
    35
390
0
 62
    40
100
AcDbCircle
 10
210.0
 20
148.5
 30
0.0
 40
70.0
210
0.0
220
0.0
230
1.0
100
AcDbArc
 50
324.914759
 51
335.085239
  0
ARC
  5
36
100
AcDbEntity
  8
0
370
    35
390
0
 62
    40
100
AcDbCircle
 10
265.235107
 20
109.70137
 30
0.0
 40
2.5
210
0.0
220
0.0
230
1.0
100
AcDbArc
 50
255.0
 51
324.914759
  0
LINE
  5
37
100
AcDbEntity
  8
0
370
    35
390
0
 62
    40
 48
0.120535
100
AcDbLine
 10
259.930939
 20
108.534424
 30
0.0
 11
264.588043
 21
107.28656
 31
0.0
210
0.0
220
0.0
230
1.0
  0
ARC
  5
38
100
AcDbEntity
  8
0
370
    35
390
0
 62
    40
100
AcDbCircle
 10
210.0
 20
148.5
 30
0.0
 40
62.5
210
0.0
220
0.0
230
1.0
100
AcDbArc
 50
310.693015
 51
319.306986
  0
LINE
  5
39
100
AcDbEntity
  8
0
370
    35
390
0
 62
    40
 48
0.120535
100
AcDbLine
 10
249.965576
 20
98.569054
 30
0.0
 11
251.21344
 21
93.911942
 31
0.0
210
0.0
220
0.0
230
1.0
  0
ARC
  5
3A
100
AcDbEntity
  8
0
370
    35
390
0
 62
    40
100
AcDbCircle
 10
248.79863
 20
93.264893
 30
0.0
 40
2.5
210
0.0
220
0.0
230
1.0
100
AcDbArc
 50
305.085242
 51
15.0
  0
ARC
  5
3B
100
AcDbEntity
  8
0
370
    35
390
0
 62
    40
100
AcDbCircle
 10
210.0
 20
148.5
 30
0.0
 40
70.0
210
0.0
220
0.0
230
1.0
100
AcDbArc
 50
294.914759
 51
305.085242
  0
ARC
  5
3C
100
AcDbEntity
  8
0
370
    35
390
0
 62
    40
100
AcDbCircle
 10
238.435684
 20
87.281853
 30
0.0
 40
2.5
210
0.0
220
0.0
230
1.0
100
AcDbArc
 50
225.0
 51
294.914759
  0
LINE
  5
3D
100
AcDbEntity
  8
0
370
    35
390
0
 62
    40
 48
0.120535
100
AcDbLine
 10
233.258682
 20
88.923325
 30
0.0
 11
236.667923
 21
85.514084
 31
0.0
210
0.0
220
0.0
230
1.0
  0
ARC
  5
3E
100
AcDbEntity
  8
0
370
    35
390
0
 62
    40
100
AcDbCircle
 10
210.0
 20
148.5
 30
0.0
 40
62.5
210
0.0
220
0.0
230
1.0
100
AcDbArc
 50
280.693014
 51
289.306989
  0
LINE
  5
3F
100
AcDbEntity
  8
0
370
    35
390
0
 62
    40
 48
0.120535
100
AcDbLine
 10
219.645721
 20
85.275742
 30
0.0
 11
218.397858
 21
80.618637
 31
0.0
210
0.0
220
0.0
230
1.0
  0
ARC
  5
40
100
AcDbEntity
  8
0
370
    35
390
0
 62
    40
100
AcDbCircle
 10
215.983047
 20
81.265686
 30
0.0
 40
2.5
210
0.0
220
0.0
230
1.0
100
AcDbArc
 50
275.085237
 51
345.0
  0
ARC
  5
41
100
AcDbEntity
  8
0
370
    35
390
0
 62
    40
100
AcDbCircle
 10
210.0
 20
148.5
 30
0.0
 40
70.0
210
0.0
220
0.0
230
1.0
100
AcDbArc
 50
264.914758
 51
275.085237
  0
ARC
  5
42
100
AcDbEntity
  8
0
370
    35
390
0
 62
    40
100
AcDbCircle
 10
204.016953
 20
81.265686
 30
0.0
 40
2.5
210
0.0
220
0.0
230
1.0
100
AcDbArc
 50
195.000006
 51
264.914758
  0
LINE
  5
43
100
AcDbEntity
  8
0
370
    35
390
0
 62
    40
 48
0.120535
100
AcDbLine
 10
200.354279
 20
85.275742
 30
0.0
 11
201.602142
 21
80.618637
 31
0.0
210
0.0
220
0.0
230
1.0
  0
ARC
  5
44
100
AcDbEntity
  8
0
370
    35
390
0
 62
    40
100
AcDbCircle
 10
210.0
 20
148.5
 30
0.0
 40
62.5
210
0.0
220
0.0
230
1.0
100
AcDbArc
 50
250.029002
 51
259.306988
  0
LINE
  5
45
100
AcDbEntity
  8
0
370
    35
390
0
 62
    40
100
AcDbLine
 10
186.031845
 20
89.176498
 30
0.0
 11
167.081665
 21
70.226334
 31
0.0
210
0.0
220
0.0
230
1.0
  0
ARC
  5
46
100
AcDbEntity
  8
0
370
    35
390
0
 62
    40
100
AcDbCircle
 10
210.0
 20
148.5
 30
0.0
 40
92.5
210
0.0
220
0.0
230
1.0
100
AcDbArc
 50
242.791591
 51
31.855432
  0
ARC
  5
47
100
AcDbEntity
  8
0
370
    35
390
0
 62
    40
100
AcDbCircle
 10
273.871307
 20
160.560547
 30
0.0
 40
2.5
210
0.0
220
0.0
230
1.0
100
AcDbArc
 50
190.693011
 51
255.0
  0
ARC
  5
48
100
AcDbEntity
  8
0
370
    35
390
0
 62
    40
100
AcDbCircle
 10
273.871307
 20
136.439453
 30
0.0
 40
2.5
210
0.0
220
0.0
230
1.0
100
AcDbArc
 50
105.0
 51
169.306989
  0
ARC
  5
49
100
AcDbEntity
  8
0
370
    35
390
0
 62
    40
100
AcDbCircle
 10
271.344452
 20
127.009087
 30
0.0
 40
2.5
210
0.0
220
0.0
230
1.0
100
AcDbArc
 50
160.693014
 51
225.0
  0
ARC
  5
4A
100
AcDbEntity
  8
0
370
    35
390
0
 62
    40
100
AcDbCircle
 10
259.283905
 20
106.119614
 30
0.0
 40
2.5
210
0.0
220
0.0
230
1.0
100
AcDbArc
 50
74.999999
 51
139.306981
  0
ARC
  5
4B
100
AcDbEntity
  8
0
370
    35
390
0
 62
    40
100
AcDbCircle
 10
252.380386
 20
99.216095
 30
0.0
 40
2.5
210
0.0
220
0.0
230
1.0
100
AcDbArc
 50
130.69302
 51
195.000006
  0
ARC
  5
4C
100
AcDbEntity
  8
0
370
    35
390
0
 62
    40
100
AcDbCircle
 10
231.490921
 20
87.155563
 30
0.0
 40
2.5
210
0.0
220
0.0
230
1.0
100
AcDbArc
 50
45.000001
 51
109.306987
  0
ARC
  5
4D
100
AcDbEntity
  8
0
370
    35
390
0
 62
    40
100
AcDbCircle
 10
222.060547
 20
84.628693
 30
0.0
 40
2.5
210
0.0
220
0.0
230
1.0
100
AcDbArc
 50
100.693012
 51
164.999994
  0
ARC
  5
4E
100
AcDbEntity
  8
0
370
    35
390
0
 62
    40
100
AcDbCircle
 10
197.939453
 20
84.628693
 30
0.0
 40
2.5
210
0.0
220
0.0
230
1.0
100
AcDbArc
 50
15.0
 51
79.306986
  0
ARC
  5
4F
100
AcDbEntity
  8
0
370
    35
390
0
 62
    40
100
AcDbCircle
 10
187.799606
 20
87.408737
 30
0.0
 40
2.5
210
0.0
220
0.0
230
1.0
100
AcDbArc
 50
70.029001
 51
135.0
  0
ARC
  5
50
100
AcDbEntity
  8
0
370
    35
390
0
 62
    40
100
AcDbCircle
 10
168.849442
 20
68.458565
 30
0.0
 40
2.5
210
0.0
220
0.0
230
1.0
100
AcDbArc
 50
135.0
 51
242.791591
  0
ARC
  5
51
100
AcDbEntity
  8
0
370
    35
390
0
 62
    40
100
AcDbCircle
 10
210.0
 20
148.5
 30
0.0
 40
62.5
210
0.0
220
0.0
230
1.0
100
AcDbArc
 50
70.029001
 51
79.306986
  0
ARC
  5
52
100
AcDbEntity
  8
0
370
    35
390
0
 62
    40
100
AcDbCircle
 10
232.200394
 20
209.591263
 30
0.0
 40
2.5
210
0.0
220
0.0
230
1.0
100
AcDbArc
 50
250.029002
 51
314.999999
  0
ARC
  5
53
100
AcDbEntity
  8
0
370
    35
390
0
 62
    40
100
AcDbCircle
 10
222.060547
 20
212.371307
 30
0.0
 40
2.5
210
0.0
220
0.0
230
1.0
100
AcDbArc
 50
195.000006
 51
259.306988
  0
LINE
  5
54
100
AcDbEntity
  8
0
370
    35
390
0
 62
    40
 48
0.165134
100
AcDbLine
 10
167.322327
 20
121.732231
 30
0.0
 11
171.993011
 21
126.402908
 31
0.0
210
0.0
220
0.0
230
1.0
  0
LINE
  5
55
100
AcDbEntity
  8
0
370
    35
390
0
 62
    40
 48
0.398129
100
AcDbLine
 10
176.642136
 20
99.232231
 30
0.0
 11
187.902908
 21
110.493011
 31
0.0
210
0.0
220
0.0
230
1.0
  0
LINE
  5
56
100
AcDbEntity
  8
0
370
    35
390
0
 62
    40
100
AcDbLine
 10
233.968155
 20
207.823502
 30
0.0
 11
252.918335
 21
226.773666
 31
0.0
210
0.0
220
0.0
230
1.0
  0
LINE
  5
57
100
AcDbEntity
  8
0
370
    35
390
0
 62
    40
 48
0.120535
100
AcDbLine
 10
219.645721
 20
211.724258
 30
0.0
 11
218.397858
 21
216.381363
 31
0.0
210
0.0
220
0.0
230
1.0
  0
ARC
  5
58
100
AcDbEntity
  8
0
370
    35
390
0
 62
    40
100
AcDbCircle
 10
165.554565
 20
123.5
 30
0.0
 40
2.5
210
0.0
220
0.0
230
1.0
100
AcDbArc
 50
269.999997
 51
314.999999
  0
LINE
  5
59
100
AcDbEntity
  8
0
370
    35
390
0
 62
    40
 48
0.252453
100
AcDbLine
 10
165.554565
 20
121.0
 30
0.0
 11
155.456436
 21
121.0
 31
0.0
210
0.0
220
0.0
230
1.0
  0
ARC
  5
5A
100
AcDbEntity
  8
0
370
    35
390
0
 62
    40
100
AcDbCircle
 10
155.456436
 20
123.5
 30
0.0
 40
2.5
210
0.0
220
0.0
230
1.0
100
AcDbArc
 50
204.624316
 51
269.999997
  0
ARC
  5
5B
100
AcDbEntity
  8
0
370
    35
390
0
 62
    40
100
AcDbCircle
 10
210.0
 20
148.5
 30
0.0
 40
62.5
210
0.0
220
0.0
230
1.0
100
AcDbArc
 50
190.693011
 51
204.624316
  0
LINE
  5
5C
100
AcDbEntity
  8
0
370
    35
390
0
 62
    40
 48
0.120535
100
AcDbLine
 10
146.775742
 20
138.854279
 30
0.0
 11
142.118637
 21
140.102142
 31
0.0
210
0.0
220
0.0
230
1.0
  0
ARC
  5
5D
100
AcDbEntity
  8
0
370
    35
390
0
 62
    40
100
AcDbCircle
 10
142.765686
 20
142.516953
 30
0.0
 40
2.5
210
0.0
220
0.0
230
1.0
100
AcDbArc
 50
185.085235
 51
255.0
  0
ARC
  5
5E
100
AcDbEntity
  8
0
370
    35
390
0
 62
    40
100
AcDbCircle
 10
210.0
 20
148.5
 30
0.0
 40
70.0
210
0.0
220
0.0
230
1.0
100
AcDbArc
 50
174.914765
 51
185.085235
  0
ARC
  5
5F
100
AcDbEntity
  8
0
370
    35
390
0
 62
    40
100
AcDbCircle
 10
142.765686
 20
154.483047
 30
0.0
 40
2.5
210
0.0
220
0.0
230
1.0
100
AcDbArc
 50
105.0
 51
174.914765
  0
LINE
  5
60
100
AcDbEntity
  8
0
370
    35
390
0
 62
    40
 48
0.120535
100
AcDbLine
 10
146.775742
 20
158.145721
 30
0.0
 11
142.118637
 21
156.897858
 31
0.0
210
0.0
220
0.0
230
1.0
  0
ARC
  5
61
100
AcDbEntity
  8
0
370
    35
390
0
 62
    40
100
AcDbCircle
 10
210.0
 20
148.5
 30
0.0
 40
62.5
210
0.0
220
0.0
230
1.0
100
AcDbArc
 50
160.693014
 51
169.306989
  0
LINE
  5
62
100
AcDbEntity
  8
0
370
    35
390
0
 62
    40
 48
0.120535
100
AcDbLine
 10
150.423325
 20
171.758682
 30
0.0
 11
147.014084
 21
175.167923
 31
0.0
210
0.0
220
0.0
230
1.0
  0
ARC
  5
63
100
AcDbEntity
  8
0
370
    35
390
0
 62
    40
100
AcDbCircle
 10
148.78186
 20
176.935684
 30
0.0
 40
2.5
210
0.0
220
0.0
230
1.0
100
AcDbArc
 50
155.085237
 51
225.0
  0
ARC
  5
64
100
AcDbEntity
  8
0
370
    35
390
0
 62
    40
100
AcDbCircle
 10
210.0
 20
148.5
 30
0.0
 40
70.0
210
0.0
220
0.0
230
1.0
100
AcDbArc
 50
144.914758
 51
155.085237
  0
ARC
  5
65
100
AcDbEntity
  8
0
370
    35
390
0
 62
    40
100
AcDbCircle
 10
154.764893
 20
187.29863
 30
0.0
 40
2.5
210
0.0
220
0.0
230
1.0
100
AcDbArc
 50
74.999999
 51
144.914758
  0
LINE
  5
66
100
AcDbEntity
  8
0
370
    35
390
0
 62
    40
 48
0.120535
100
AcDbLine
 10
160.069061
 20
188.465576
 30
0.0
 11
155.411942
 21
189.71344
 31
0.0
210
0.0
220
0.0
230
1.0
  0
ARC
  5
67
100
AcDbEntity
  8
0
370
    35
390
0
 62
    40
100
AcDbCircle
 10
210.0
 20
148.5
 30
0.0
 40
62.5
210
0.0
220
0.0
230
1.0
100
AcDbArc
 50
130.69302
 51
139.306981
  0
LINE
  5
68
100
AcDbEntity
  8
0
370
    35
390
0
 62
    40
 48
0.120535
100
AcDbLine
 10
170.034424
 20
198.430939
 30
0.0
 11
168.78656
 21
203.088058
 31
0.0
210
0.0
220
0.0
230
1.0
  0
ARC
  5
69
100
AcDbEntity
  8
0
370
    35
390
0
 62
    40
100
AcDbCircle
 10
171.20137
 20
203.735107
 30
0.0
 40
2.5
210
0.0
220
0.0
230
1.0
100
AcDbArc
 50
125.085243
 51
195.000006
  0
ARC
  5
6A
100
AcDbEntity
  8
0
370
    35
390
0
 62
    40
100
AcDbCircle
 10
210.0
 20
148.5
 30
0.0
 40
70.0
210
0.0
220
0.0
230
1.0
100
AcDbArc
 50
114.914764
 51
125.085243
  0
ARC
  5
6B
100
AcDbEntity
  8
0
370
    35
390
0
 62
    40
100
AcDbCircle
 10
181.564316
 20
209.71814
 30
0.0
 40
2.5
210
0.0
220
0.0
230
1.0
100
AcDbArc
 50
45.000001
 51
114.914764
  0
LINE
  5
6C
100
AcDbEntity
  8
0
370
    35
390
0
 62
    40
 48
0.120535
100
AcDbLine
 10
186.741318
 20
208.076675
 30
0.0
 11
183.332077
 21
211.485916
 31
0.0
210
0.0
220
0.0
230
1.0
  0
ARC
  5
6D
100
AcDbEntity
  8
0
370
    35
390
0
 62
    40
100
AcDbCircle
 10
210.0
 20
148.5
 30
0.0
 40
62.5
210
0.0
220
0.0
230
1.0
100
AcDbArc
 50
100.693012
 51
109.306987
  0
LINE
  5
6E
100
AcDbEntity
  8
0
370
    35
390
0
 62
    40
 48
0.120535
100
AcDbLine
 10
200.354279
 20
211.724258
 30
0.0
 11
201.602142
 21
216.381363
 31
0.0
210
0.0
220
0.0
230
1.0
  0
ARC
  5
6F
100
AcDbEntity
  8
0
370
    35
390
0
 62
    40
100
AcDbCircle
 10
204.016953
 20
215.734314
 30
0.0
 40
2.5
210
0.0
220
0.0
230
1.0
100
AcDbArc
 50
95.085242
 51
164.999994
  0
ARC
  5
70
100
AcDbEntity
  8
0
370
    35
390
0
 62
    40
100
AcDbCircle
 10
210.0
 20
148.5
 30
0.0
 40
70.0
210
0.0
220
0.0
230
1.0
100
AcDbArc
 50
84.914763
 51
95.085242
  0
ARC
  5
71
100
AcDbEntity
  8
0
370
    35
390
0
 62
    40
100
AcDbCircle
 10
215.983047
 20
215.734314
 30
0.0
 40
2.5
210
0.0
220
0.0
230
1.0
100
AcDbArc
 50
15.0
 51
84.914763
  0
ARC
  5
72
100
AcDbEntity
  8
0
370
    35
390
0
 62
    40
100
AcDbCircle
 10
210.0
 20
148.5
 30
0.0
 40
92.5
210
0.0
220
0.0
230
1.0
100
AcDbArc
 50
62.791589
 51
211.855437
  0
LINE
  5
73
100
AcDbEntity
  8
0
370
    35
390
0
 62
    40
100
AcDbLine
 10
174.874374
 20
98.5
 30
0.0
 11
133.555573
 21
98.5
 31
0.0
210
0.0
220
0.0
230
1.0
  0
ARC
  5
74
100
AcDbEntity
  8
0
370
    35
390
0
 62
    40
100
AcDbCircle
 10
251.150558
 20
228.541443
 30
0.0
 40
2.5
210
0.0
220
0.0
230
1.0
100
AcDbArc
 50
314.999999
 51
62.791589
  0
ARC
  5
75
100
AcDbEntity
  8
0
370
    35
390
0
 62
    40
100
AcDbCircle
 10
146.128693
 20
136.439453
 30
0.0
 40
2.5
210
0.0
220
0.0
230
1.0
100
AcDbArc
 50
10.693014
 51
74.999999
  0
ARC
  5
76
100
AcDbEntity
  8
0
370
    35
390
0
 62
    40
100
AcDbCircle
 10
146.128693
 20
160.560547
 30
0.0
 40
2.5
210
0.0
220
0.0
230
1.0
100
AcDbArc
 50
285.000001
 51
349.306986
  0
ARC
  5
77
100
AcDbEntity
  8
0
370
    35
390
0
 62
    40
100
AcDbCircle
 10
148.655563
 20
169.990921
 30
0.0
 40
2.5
210
0.0
220
0.0
230
1.0
100
AcDbArc
 50
340.693014
 51
45.000001
  0
ARC
  5
78
100
AcDbEntity
  8
0
370
    35
390
0
 62
    40
100
AcDbCircle
 10
160.716095
 20
190.880386
 30
0.0
 40
2.5
210
0.0
220
0.0
230
1.0
100
AcDbArc
 50
255.0
 51
319.306986
  0
ARC
  5
79
100
AcDbEntity
  8
0
370
    35
390
0
 62
    40
100
AcDbCircle
 10
167.619614
 20
197.783905
 30
0.0
 40
2.5
210
0.0
220
0.0
230
1.0
100
AcDbArc
 50
310.693015
 51
15.0
  0
ARC
  5
7A
100
AcDbEntity
  8
0
370
    35
390
0
 62
    40
100
AcDbCircle
 10
188.509079
 20
209.844437
 30
0.0
 40
2.5
210
0.0
220
0.0
230
1.0
100
AcDbArc
 50
225.0
 51
289.306989
  0
ARC
  5
7B
100
AcDbEntity
  8
0
370
    35
390
0
 62
    40
100
AcDbCircle
 10
197.939453
 20
212.371307
 30
0.0
 40
2.5
210
0.0
220
0.0
230
1.0
100
AcDbArc
 50
280.693014
 51
345.0
  0
ARC
  5
7C
100
AcDbEntity
  8
0
370
    35
390
0
 62
    40
100
AcDbCircle
 10
133.555573
 20
101.0
 30
0.0
 40
2.5
210
0.0
220
0.0
230
1.0
100
AcDbArc
 50
211.855437
 51
269.999997
  0
ARC
  5
7D
100
AcDbEntity
  8
0
370
    35
390
0
 62
    40
100
AcDbCircle
 10
174.874374
 20
101.0
 30
0.0
 40
2.5
210
0.0
220
0.0
230
1.0
100
AcDbArc
 50
269.999997
 51
314.999999
  0
LINE
  5
7E
100
AcDbEntity
  8
0
370
    35
390
0
 62
    30
100
AcDbLine
 10
247.123108
 20
118.44796
 30
0.0
 11
275.407379
 21
146.732239
 31
0.0
210
0.0
220
0.0
230
1.0
  0
ARC
  5
7F
100
AcDbEntity
  8
0
370
    35
390
0
 62
    30
100
AcDbCircle
 10
273.639618
 20
148.5
 30
0.0
 40
2.5
210
0.0
220
0.0
230
1.0
100
AcDbArc
 50
314.999999
 51
45.000001
  0
ARC
  5
80
100
AcDbEntity
  8
0
370
    35
390
0
 62
    30
100
AcDbCircle
 10
245.355347
 20
120.215729
 30
0.0
 40
2.5
210
0.0
220
0.0
230
1.0
100
AcDbArc
 50
225.0
 51
314.999999
  0
LINE
  5
81
100
AcDbEntity
  8
0
370
    35
390
0
 62
    30
100
AcDbLine
 10
275.407379
 20
150.267761
 30
0.0
 11
257.729706
 21
167.945435
 31
0.0
210
0.0
220
0.0
230
1.0
  0
ARC
  5
82
100
AcDbEntity
  8
0
370
    35
390
0
 62
    30
100
AcDbCircle
 10
252.426407
 20
169.713196
 30
0.0
 40
2.5
210
0.0
220
0.0
230
1.0
100
AcDbArc
 50
225.0
 51
314.999999
  0
LINE
  5
83
100
AcDbEntity
  8
0
370
    35
390
0
 62
    30
100
AcDbLine
 10
250.658646
 20
167.945435
 30
0.0
 11
229.445435
 21
189.158646
 31
0.0
210
0.0
220
0.0
230
1.0
  0
ARC
  5
84
100
AcDbEntity
  8
0
370
    35
390
0
 62
    30
100
AcDbCircle
 10
231.213196
 20
190.926407
 30
0.0
 40
2.5
210
0.0
220
0.0
230
1.0
100
AcDbArc
 50
135.0
 51
225.0
  0
LINE
  5
85
100
AcDbEntity
  8
0
370
    35
390
0
 62
    30
100
AcDbLine
 10
229.445435
 20
196.229706
 30
0.0
 11
211.767761
 21
213.907379
 31
0.0
210
0.0
220
0.0
230
1.0
  0
LINE
  5
86
100
AcDbEntity
  8
0
370
    35
390
0
 62
    30
100
AcDbLine
 10
208.232239
 20
213.907379
 30
0.0
 11
179.947968
 21
185.623108
 31
0.0
210
0.0
220
0.0
230
1.0
  0
LINE
  5
87
100
AcDbEntity
  8
0
370
    35
390
0
 62
    30
100
AcDbLine
 10
179.947968
 20
182.08757
 30
0.0
 11
197.625626
 21
164.409897
 31
0.0
210
0.0
220
0.0
230
1.0
  0
LINE
  5
88
100
AcDbEntity
  8
0
370
    35
390
0
 62
    30
 48
0.125
100
AcDbLine
 10
201.161163
 20
164.409897
 30
0.0
 11
204.696701
 21
167.945435
 31
0.0
210
0.0
220
0.0
230
1.0
  0
ARC
  5
89
100
AcDbEntity
  8
0
370
    35
390
0
 62
    30
100
AcDbCircle
 10
206.464462
 20
166.177673
 30
0.0
 40
2.5
210
0.0
220
0.0
230
1.0
100
AcDbArc
 50
314.999999
 51
135.0
  0
LINE
  5
8A
100
AcDbEntity
  8
0
370
    35
390
0
 62
    30
 48
0.5
100
AcDbLine
 10
194.090103
 20
150.267761
 30
0.0
 11
208.232239
 21
164.409897
 31
0.0
210
0.0
220
0.0
230
1.0
  0
ARC
  5
8B
100
AcDbEntity
  8
0
370
    35
390
0
 62
    30
100
AcDbCircle
 10
192.322327
 20
152.035538
 30
0.0
 40
2.5
210
0.0
220
0.0
230
1.0
100
AcDbArc
 50
135.0
 51
314.999999
  0
LINE
  5
8C
100
AcDbEntity
  8
0
370
    35
390
0
 62
    30
 48
0.125
100
AcDbLine
 10
190.554565
 20
153.803299
 30
0.0
 11
194.090103
 21
157.338837
 31
0.0
210
0.0
220
0.0
230
1.0
  0
LINE
  5
8D
100
AcDbEntity
  8
0
370
    35
390
0
 62
    30
100
AcDbLine
 10
176.41243
 20
178.552032
 30
0.0
 11
194.090103
 21
160.874374
 31
0.0
210
0.0
220
0.0
230
1.0
  0
LINE
  5
8E
100
AcDbEntity
  8
0
370
    35
390
0
 62
    30
100
AcDbLine
 10
172.876892
 20
178.552032
 30
0.0
 11
144.592621
 21
150.267761
 31
0.0
210
0.0
220
0.0
230
1.0
  0
LINE
  5
8F
100
AcDbEntity
  8
0
370
    35
390
0
 62
    30
100
AcDbLine
 10
162.270294
 20
129.054565
 30
0.0
 11
144.592621
 21
146.732239
 31
0.0
210
0.0
220
0.0
230
1.0
  0
ARC
  5
90
100
AcDbEntity
  8
0
370
    35
390
0
 62
    30
100
AcDbCircle
 10
167.573593
 20
127.286797
 30
0.0
 40
2.5
210
0.0
220
0.0
230
1.0
100
AcDbArc
 50
45.000001
 51
135.0
  0
LINE
  5
91
100
AcDbEntity
  8
0
370
    35
390
0
 62
    30
100
AcDbLine
 10
190.554565
 20
107.841354
 30
0.0
 11
169.341354
 21
129.054565
 31
0.0
210
0.0
220
0.0
230
1.0
  0
ARC
  5
92
100
AcDbEntity
  8
0
370
    35
390
0
 62
    30
100
AcDbCircle
 10
188.786804
 20
106.073593
 30
0.0
 40
2.5
210
0.0
220
0.0
230
1.0
100
AcDbArc
 50
314.999999
 51
45.000001
  0
LINE
  5
93
100
AcDbEntity
  8
0
370
    35
390
0
 62
    30
100
AcDbLine
 10
208.232239
 20
83.092621
 30
0.0
 11
190.554565
 21
100.770294
 31
0.0
210
0.0
220
0.0
230
1.0
  0
LINE
  5
94
100
AcDbEntity
  8
0
370
    35
390
0
 62
    30
100
AcDbLine
 10
240.052032
 20
111.376892
 30
0.0
 11
211.767761
 21
83.092621
 31
0.0
210
0.0
220
0.0
230
1.0
  0
LINE
  5
95
100
AcDbEntity
  8
0
370
    35
390
0
 62
    30
100
AcDbLine
 10
222.374374
 20
132.590103
 30
0.0
 11
240.052032
 21
114.91243
 31
0.0
210
0.0
220
0.0
230
1.0
  0
LINE
  5
96
100
AcDbEntity
  8
0
370
    35
390
0
 62
    30
 48
0.125
100
AcDbLine
 10
215.303299
 20
129.054565
 30
0.0
 11
218.838837
 21
132.590103
 31
0.0
210
0.0
220
0.0
230
1.0
  0
ARC
  5
97
100
AcDbEntity
  8
0
370
    35
390
0
 62
    30
100
AcDbCircle
 10
213.535538
 20
130.822327
 30
0.0
 40
2.5
210
0.0
220
0.0
230
1.0
100
AcDbArc
 50
135.0
 51
314.999999
  0
LINE
  5
98
100
AcDbEntity
  8
0
370
    35
390
0
 62
    30
 48
0.5
100
AcDbLine
 10
211.767761
 20
132.590103
 30
0.0
 11
225.909897
 21
146.732239
 31
0.0
210
0.0
220
0.0
230
1.0
  0
ARC
  5
99
100
AcDbEntity
  8
0
370
    35
390
0
 62
    30
100
AcDbCircle
 10
227.677673
 20
144.964462
 30
0.0
 40
2.5
210
0.0
220
0.0
230
1.0
100
AcDbArc
 50
314.999999
 51
135.0
  0
LINE
  5
9A
100
AcDbEntity
  8
0
370
    35
390
0
 62
    30
 48
0.125
100
AcDbLine
 10
225.909897
 20
139.661163
 30
0.0
 11
229.445435
 21
143.196701
 31
0.0
210
0.0
220
0.0
230
1.0
  0
LINE
  5
9B
100
AcDbEntity
  8
0
370
    35
390
0
 62
    30
100
AcDbLine
 10
225.909897
 20
136.125626
 30
0.0
 11
243.58757
 21
118.44796
 31
0.0
210
0.0
220
0.0
230
1.0
  0
ARC
  5
9C
100
AcDbEntity
  8
0
370
    35
390
0
 62
    30
100
AcDbCircle
 10
255.961945
 20
166.177673
 30
0.0
 40
2.5
210
0.0
220
0.0
230
1.0
100
AcDbArc
 50
45.000001
 51
135.0
  0
ARC
  5
9D
100
AcDbEntity
  8
0
370
    35
390
0
 62
    30
100
AcDbCircle
 10
227.677673
 20
194.461945
 30
0.0
 40
2.5
210
0.0
220
0.0
230
1.0
100
AcDbArc
 50
314.999999
 51
45.000001
  0
ARC
  5
9E
100
AcDbEntity
  8
0
370
    35
390
0
 62
    30
100
AcDbCircle
 10
210.0
 20
212.139618
 30
0.0
 40
2.5
210
0.0
220
0.0
230
1.0
100
AcDbArc
 50
45.000001
 51
135.0
  0
ARC
  5
9F
100
AcDbEntity
  8
0
370
    35
390
0
 62
    30
100
AcDbCircle
 10
181.715729
 20
183.855347
 30
0.0
 40
2.5
210
0.0
220
0.0
230
1.0
100
AcDbArc
 50
135.0
 51
225.0
  0
ARC
  5
A0
100
AcDbEntity
  8
0
370
    35
390
0
 62
    30
100
AcDbCircle
 10
199.393402
 20
166.177673
 30
0.0
 40
2.5
210
0.0
220
0.0
230
1.0
100
AcDbArc
 50
225.0
 51
314.999999
  0
ARC
  5
A1
100
AcDbEntity
  8
0
370
    35
390
0
 62
    30
100
AcDbCircle
 10
192.322327
 20
159.106598
 30
0.0
 40
2.5
210
0.0
220
0.0
230
1.0
100
AcDbArc
 50
314.999999
 51
45.000001
  0
ARC
  5
A2
100
AcDbEntity
  8
0
370
    35
390
0
 62
    30
100
AcDbCircle
 10
174.644653
 20
176.784271
 30
0.0
 40
2.5
210
0.0
220
0.0
230
1.0
100
AcDbArc
 50
45.000001
 51
135.0
  0
ARC
  5
A3
100
AcDbEntity
  8
0
370
    35
390
0
 62
    30
100
AcDbCircle
 10
146.360382
 20
148.5
 30
0.0
 40
2.5
210
0.0
220
0.0
230
1.0
100
AcDbArc
 50
135.0
 51
225.0
  0
ARC
  5
A4
100
AcDbEntity
  8
0
370
    35
390
0
 62
    30
100
AcDbCircle
 10
164.038055
 20
130.822327
 30
0.0
 40
2.5
210
0.0
220
0.0
230
1.0
100
AcDbArc
 50
225.0
 51
314.999999
  0
ARC
  5
A5
100
AcDbEntity
  8
0
370
    35
390
0
 62
    30
100
AcDbCircle
 10
192.322327
 20
102.538055
 30
0.0
 40
2.5
210
0.0
220
0.0
230
1.0
100
AcDbArc
 50
135.0
 51
225.0
  0
ARC
  5
A6
100
AcDbEntity
  8
0
370
    35
390
0
 62
    30
100
AcDbCircle
 10
210.0
 20
84.86039
 30
0.0
 40
2.5
210
0.0
220
0.0
230
1.0
100
AcDbArc
 50
225.0
 51
314.999999
  0
ARC
  5
A7
100
AcDbEntity
  8
0
370
    35
390
0
 62
    30
100
AcDbCircle
 10
238.284271
 20
113.144661
 30
0.0
 40
2.5
210
0.0
220
0.0
230
1.0
100
AcDbArc
 50
314.999999
 51
45.000001
  0
ARC
  5
A8
100
AcDbEntity
  8
0
370
    35
390
0
 62
    30
100
AcDbCircle
 10
220.606598
 20
130.822327
 30
0.0
 40
2.5
210
0.0
220
0.0
230
1.0
100
AcDbArc
 50
45.000001
 51
135.0
  0
ARC
  5
A9
100
AcDbEntity
  8
0
370
    35
390
0
 62
    30
100
AcDbCircle
 10
227.677673
 20
137.893402
 30
0.0
 40
2.5
210
0.0
220
0.0
230
1.0
100
AcDbArc
 50
135.0
 51
225.0
  0
ENDSEC
  0
SECTION
  2
OBJECTS
  0
DICTIONARY
  5
19
100
AcDbDictionary
280
     0
281
     1
  3
ACAD_GROUP
350
1A
  3
ACAD_MLINESTYLE
350
1B
  3
ACAD_LAYOUT
350
1E
  3
ACAD_PLOTSETTINGS
350
22
  3
ACAD_PLOTSTYLENAME
350
1F
  3
ACAD_WIPEOUT_VARS
350
23
  0
DICTIONARY
  5
1A
102
{ACAD_REACTORS
330
19
102
}
100
AcDbDictionary
280
     0
281
     1
  0
DICTIONARY
  5
1B
102
{ACAD_REACTORS
330
19
102
}
100
AcDbDictionary
280
     0
281
     1
  3
Standard
350
1C
  0
MLINESTYLE
  5
1C
102
{ACAD_REACTORS
330
1B
102
}
100
AcDbMlineStyle
  2
Standard
 70
     0
  3

 62
     0
 51
90.0
 52
90.0
 71
     2
 49
0.5
 62
   256
  6
ByLayer
 49
-0.5
 62
   256
  6
ByLayer
  0
ACDBDICTIONARYWDFLT
  5
1F
102
{ACAD_REACTORS
330
19
102
}
100
AcDbDictionary
281
     1
  3
Normal
350
1D
100
AcDbDictionaryWithDefault
340
1D
  0
ACDBPLACEHOLDER
  5
1D
102
{ACAD_REACTORS
330
1F
102
}
  0
LAYOUT
  5
20
102
{ACAD_REACTORS
330
1E
102
}
100
AcDbPlotSettings
  1

  2

  4

  6

 40
0.0
 41
0.0
 42
0.0
 43
0.0
 44
0.0
 45
0.0
 46
0.0
 47
0.0
 48
0.0
 49
0.0
140
0.0
141
0.0
142
1.0
143
1.0
 70
  1024
 72
     0
 73
     0
 74
     0
  7

 75
     0
147
1.0
148
0.0
149
0.0
100
AcDbLayout
  1
Model
 70
     0
 71
     0
 10
0.0
 20
0.0
 11
0.0
 21
0.0
 12
0.0
 22
0.0
 32
0.0
 14
0.0
 24
0.0
 34
0.0
 15
0.0
 25
0.0
 35
0.0
146
0.0
 13
0.0
 23
0.0
 33
0.0
 16
0.0
 26
0.0
 36
0.0
 17
0.0
 27
0.0
 37
0.0
 76
     0
330
A
331
0
345
0
346
0
  0
LAYOUT
  5
21
102
{ACAD_REACTORS
330
1E
102
}
100
AcDbPlotSettings
  1

  2

  4

  6

 40
0.0
 41
0.0
 42
0.0
 43
0.0
 44
0.0
 45
0.0
 46
0.0
 47
0.0
 48
0.0
 49
0.0
140
0.0
141
0.0
142
1.0
143
1.0
 70
     0
 72
     0
 73
     0
 74
     0
  7

 75
     0
147
1.0
148
0.0
149
0.0
100
AcDbLayout
  1
Layout1
 70
     0
 71
     0
 10
0.0
 20
0.0
 11
0.0
 21
0.0
 12
0.0
 22
0.0
 32
0.0
 14
0.0
 24
0.0
 34
0.0
 15
0.0
 25
0.0
 35
0.0
146
0.0
 13
0.0
 23
0.0
 33
0.0
 16
0.0
 26
0.0
 36
0.0
 17
0.0
 27
0.0
 37
0.0
 76
     0
330
B
331
0
345
0
346
0
  0
DICTIONARY
  5
1E
102
{ACAD_REACTORS
330
19
102
}
100
AcDbDictionary
280
     0
281
     1
  3
Layout1
350
21
  3
Model
350
20
  0
DICTIONARY
  5
22
102
{ACAD_REACTORS
330
19
102
}
100
AcDbDictionary
280
     0
281
     1
  0
WIPEOUTVARIABLES
  5
23
100
AcDbWipeoutVariables
 70
     1
  0
ENDSEC
  0
EOF
