<?xml version="1.0" encoding="UTF-8" standalone="no"?>
<svg
   xmlns:dsy="http://www.3ds.com/print"
   xmlns:dc="http://purl.org/dc/elements/1.1/"
   xmlns:cc="http://creativecommons.org/ns#"
   xmlns:rdf="http://www.w3.org/1999/02/22-rdf-syntax-ns#"
   xmlns:svg="http://www.w3.org/2000/svg"
   xmlns="http://www.w3.org/2000/svg"
   xmlns:sodipodi="http://sodipodi.sourceforge.net/DTD/sodipodi-0.dtd"
   xmlns:inkscape="http://www.inkscape.org/namespaces/inkscape"
   width="600"
   xlink="http://www.w3.org/1999/xlink"
   height="600"
   version="1.1"
   viewBox="0 0 600 600"
   dsy:text-version="20000"
   id="svg2"
   inkscape:version="0.48.4 r9939"
   sodipodi:docname="SWINDON HACKSPACE LOGO 14.svg">
  <metadata
     id="metadata68">
    <rdf:RDF>
      <cc:Work
         rdf:about="">
        <dc:format>image/svg+xml</dc:format>
        <dc:type
           rdf:resource="http://purl.org/dc/dcmitype/StillImage" />
        <dc:title>Sheet.1</dc:title>
      </cc:Work>
    </rdf:RDF>
  </metadata>
  <defs
     id="defs66" />
  <sodipodi:namedview
     pagecolor="#ffffff"
     bordercolor="#666666"
     borderopacity="1"
     objecttolerance="10"
     gridtolerance="10"
     guidetolerance="10"
     inkscape:pageopacity="0"
     inkscape:pageshadow="2"
     inkscape:window-width="1366"
     inkscape:window-height="746"
     id="namedview64"
     showgrid="false"
     inkscape:zoom="0.96969697"
     inkscape:cx="361.29921"
     inkscape:cy="305.71187"
     inkscape:window-x="-8"
     inkscape:window-y="-8"
     inkscape:window-maximized="1"
     inkscape:current-layer="layer2" />
  <title
     id="title4">Sheet.1</title>
  <g
     inkscape:groupmode="layer"
     id="layer1"
     inkscape:label="S"
     style="display:inline"
     transform="translate(0,390)">
    <path
       id="path62"
       style="fill:#fdc7a2;fill-opacity:1;stroke:none"
       d="m 232.42436,84.24371 c 2.75189,-2.753619 7.76062,-2.753619 10.51251,0 l 36.04163,36.05449 c 5.50361,5.50546 13.23887,8.7106 21.02205,8.7106 7.78318,0 15.51844,-3.20514 21.02205,-8.7106 L 510.22406,-68.970769 c 5.50358,-5.505574 8.70763,-13.243653 8.70763,-21.029704 0,-7.786021 -3.20405,-15.524117 -8.70763,-21.029697 l -52.55662,-52.57418 c -5.50361,-5.50546 -13.23887,-8.71061 -21.02206,-8.71061 -7.78318,0 -15.51844,3.20515 -21.02205,8.71061 L 175.29824,76.808569 c -1.37617,1.376304 -3.31031,2.177366 -5.25625,2.177009 l -83.380645,0 c -2.28628,8.9e-5 -4.54607,-1.123807 -5.92607,-2.94729 C 43.535177,26.878409 23.574689,-35.078479 25.079283,-96.716637 26.583878,-158.35478 49.543524,-219.26323 89.097845,-266.54819 c 39.554325,-47.28495 95.439605,-80.63113 155.825405,-92.97943 60.38579,-12.34831 124.86948,-3.61639 179.80042,24.34726 4.16332,2.11923 5.188,8.57973 1.88488,11.88403 l -59.03181,59.05317 c -2.75189,2.75361 -7.76061,2.75361 -10.51251,0 l -36.04163,-36.05479 c -5.50361,-5.50545 -13.23887,-8.7106 -21.02205,-8.7106 -7.78318,0 -15.51844,3.20515 -21.02205,8.7106 L 89.777935,-111.03017 c -5.50358,5.50558 -8.70764,13.243676 -8.70764,21.029697 0,7.786051 3.20406,15.52413 8.70764,21.029704 l 52.555735,52.575374 c 5.5036,5.505455 13.23886,8.7105956 21.02205,8.7105956 7.78318,0 15.51844,-3.2051406 21.02205,-8.7105956 L 424.70286,-256.80802 c 1.37608,-1.37652 3.31022,-2.17781 5.25626,-2.1776 l 83.38063,0 c 2.28603,2.7e-4 4.54542,1.12424 5.92519,2.94759 37.19996,49.15981 57.16039,111.11657 55.65578,172.754583 -1.50457,61.638039 -24.46409,122.546364 -64.01826,169.831308 -39.55416,47.284919 -95.43923,80.631139 -155.82487,92.979599 -60.38562,12.34846 -124.86922,3.61681 -179.80016,-24.34655 -4.16353,-2.11919 -5.18823,-8.58003 -1.88488,-11.88433 z"
       inkscape:connector-curvature="0"
       sodipodi:nodetypes="cccsccsccscccccssscccccsccsccscccccsssccc" />
  </g>
  <g
     inkscape:groupmode="layer"
     id="layer2"
     inkscape:label="H"
     style="display:inline"
     transform="translate(0,390)">
    <path
       id="path94"
       style="fill:#fc6910;fill-opacity:1;stroke:none"
       d="m 494.45532,-95.257533 -52.55364,-52.573587 c -2.7519,-2.75362 -7.76062,-2.75362 -10.51251,0 -2.75169,2.75184 -7.75786,2.75184 -10.50954,0 l -63.06914,-63.08956 c -2.75174,-2.75278 -2.75174,-7.762 0,-10.51478 2.75175,-2.75278 2.75175,-7.762 0,-10.51478 l -52.55364,-52.57448 c -2.7519,-2.75361 -7.76062,-2.75361 -10.51252,0 l -84.08821,84.11911 c -2.75174,2.75278 -2.75174,7.762 0,10.51478 l 52.55662,52.57448 c 2.75169,2.75185 7.75785,2.75185 10.50954,0 l 10.51251,-10.51477 c 2.76418,-2.69557 7.71469,-2.66383 10.44411,0.0669 2.72942,2.73078 2.76042,7.68306 0.0654,10.44784 l -42.0441,42.05881 c -2.76599,2.686376 -7.70723,2.649736 -10.43311,-0.07733 -2.72588,-2.727062 -2.76206,-7.67009 -0.0764,-10.43683 l 10.50955,-10.51478 c 2.75191,-2.7528 2.75191,-7.76227 0,-10.51508 l -52.55663,-52.57418 c -2.75168,-2.75185 -7.75785,-2.75185 -10.50953,0 l -84.0894,84.118225 c -2.75264,2.752876 -2.75264,7.763388 0,10.516265 l 52.55483,52.5724 c 2.7519,2.75362 7.76062,2.75362 10.51251,0 2.75169,-2.751835 7.75786,-2.751835 10.50954,0 l 63.06913,63.091639 c 2.75086,2.752668 2.75086,7.760623 0,10.513291 -2.75263,2.752876 -2.75263,7.763388 0,10.516264 l 52.55364,52.572396 c 2.7519,2.75362 7.76062,2.75362 10.51252,0 l 84.08821,-84.118215 c 2.75085,-2.752668 2.75085,-7.760623 0,-10.5132907 L 336.78844,-42.68217 c -2.75169,-2.751836 -7.75785,-2.751836 -10.50954,0 l -10.51251,10.51329 c -2.76825,2.674599 -7.69765,2.631773 -10.41902,-0.09071 -2.72136,-2.722332 -2.76417,-7.653497 -0.0907,-10.42273 l 42.0441,-42.05911 c 2.76825,-2.674599 7.69766,-2.631773 10.41902,0.09071 2.72136,2.722332 2.76417,7.653497 0.0907,10.42273 l -10.50954,10.516265 c -2.75085,2.752667 -2.75085,7.760622 0,10.51329 l 52.55662,52.57537525 c 2.75169,2.75183505 7.75786,2.75183505 10.50954,0 L 494.45532,-84.74128 c 2.75264,-2.752877 2.75264,-7.763389 0,-10.516265 z"
       inkscape:connector-curvature="0"
       sodipodi:nodetypes="ccccccccccccccsccsccccccccccccccccccccsccsccccccc" />
  </g>
</svg>
